<svg xmlns="http://www.w3.org/2000/svg" xmlns:xlink="http://www.w3.org/1999/xlink" viewBox="0 0 431.5 556.43"><defs><clipPath id="a" transform="translate(0 -0.57)"><rect y="0.57" width="431.5" height="556.43" style="fill:none"/></clipPath><clipPath id="c" transform="translate(0 -0.57)"><rect x="-17" y="-12.43" width="465.5" height="570.43" style="fill:none"/></clipPath></defs><title>type</title><g style="isolation:isolate"><g style="clip-path:url(#a)"><g style="clip-path:url(#a)"><g style="mix-blend-mode:difference"><g style="clip-path:url(#c)"><path d="M4.43,53.74h0C2.54,53.74,1,51.37,1,48.45V11.27C1,8.35,2.54,6,4.43,6s3.44,2.37,3.44,5.29V48.45c0,2.92-1.54,5.29-3.44,5.29" transform="translate(0 -0.57)" style="fill:#fff"/><path d="M4.43,53.74h0C2.54,53.74,1,51.37,1,48.45V11.27C1,8.35,2.54,6,4.43,6s3.44,2.37,3.44,5.29V48.45C7.87,51.37,6.33,53.74,4.43,53.74Z" transform="translate(0 -0.57)" style="fill:none;stroke:#fff;stroke-miterlimit:10;stroke-width:2px"/><path d="M4.43,98.92h0C2.54,98.92,1,96.55,1,93.63V56.45c0-2.92,1.54-5.29,3.43-5.29s3.44,2.37,3.44,5.29V93.63c0,2.92-1.54,5.29-3.44,5.29" transform="translate(0 -0.57)" style="fill:#fff"/><path d="M4.43,98.92h0C2.54,98.92,1,96.55,1,93.63V56.45c0-2.92,1.54-5.29,3.43-5.29s3.44,2.37,3.44,5.29V93.63C7.87,96.55,6.33,98.92,4.43,98.92Z" transform="translate(0 -0.57)" style="fill:none;stroke:#fff;stroke-miterlimit:10;stroke-width:2px"/><path d="M4.43,142h0C2.54,142,1,139.62,1,136.71V99.52c0-2.92,1.54-5.28,3.43-5.28s3.44,2.36,3.44,5.28v37.19c0,2.91-1.54,5.28-3.44,5.28" transform="translate(0 -0.57)" style="fill:#fff"/><path d="M4.43,142h0C2.54,142,1,139.62,1,136.71V99.52c0-2.92,1.54-5.28,3.43-5.28s3.44,2.36,3.44,5.28v37.19C7.87,139.62,6.33,142,4.43,142Z" transform="translate(0 -0.57)" style="fill:none;stroke:#fff;stroke-miterlimit:10;stroke-width:2px"/><path d="M4.43,187.17h0c-1.89,0-3.43-2.37-3.43-5.29V144.7c0-2.92,1.54-5.29,3.43-5.29s3.44,2.37,3.44,5.29v37.18c0,2.92-1.54,5.29-3.44,5.29" transform="translate(0 -0.57)" style="fill:#fff"/><path d="M4.43,187.17h0c-1.89,0-3.43-2.37-3.43-5.29V144.7c0-2.92,1.54-5.29,3.43-5.29s3.44,2.37,3.44,5.29v37.18C7.87,184.8,6.33,187.17,4.43,187.17Z" transform="translate(0 -0.57)" style="fill:none;stroke:#fff;stroke-miterlimit:10;stroke-width:2px"/><path d="M4.43,228.14h0c-1.89,0-3.43-2.36-3.43-5.28V185.67c0-2.91,1.54-5.28,3.43-5.28s3.44,2.37,3.44,5.28v37.19c0,2.92-1.54,5.28-3.44,5.28" transform="translate(0 -0.57)" style="fill:#fff"/><path d="M4.43,228.14h0c-1.89,0-3.43-2.36-3.43-5.28V185.67c0-2.91,1.54-5.28,3.43-5.28s3.44,2.37,3.44,5.28v37.19C7.87,225.78,6.33,228.14,4.43,228.14Z" transform="translate(0 -0.57)" style="fill:none;stroke:#fff;stroke-miterlimit:10;stroke-width:2px"/><path d="M4.43,273.32h0C2.54,273.32,1,271,1,268V230.85c0-2.92,1.54-5.28,3.43-5.28s3.44,2.36,3.44,5.28V268c0,2.92-1.54,5.29-3.44,5.29" transform="translate(0 -0.57)" style="fill:#fff"/><path d="M4.43,273.32h0C2.54,273.32,1,271,1,268V230.85c0-2.92,1.54-5.28,3.43-5.28s3.44,2.36,3.44,5.28V268C7.87,271,6.33,273.32,4.43,273.32Z" transform="translate(0 -0.57)" style="fill:none;stroke:#fff;stroke-miterlimit:10;stroke-width:2px"/><path d="M40.38,255.58h0c-2.14,0-3.89-2.65-3.89-5.92V79.52c0-3.27,1.75-5.92,3.89-5.92s3.9,2.65,3.9,5.92V249.66c0,3.27-1.75,5.92-3.9,5.92" transform="translate(0 -0.57)" style="fill:#fff"/><path d="M40.38,255.58h0c-2.14,0-3.89-2.65-3.89-5.92V79.52c0-3.27,1.75-5.92,3.89-5.92s3.9,2.65,3.9,5.92V249.66C44.28,252.93,42.53,255.58,40.38,255.58Z" transform="translate(0 -0.57)" style="fill:none;stroke:#fff;stroke-miterlimit:10;stroke-width:2px"/><path d="M40.62,61.05h0c-4.67,0-8.45-5.44-8.45-12.15v-32c0-6.71,3.78-12.15,8.45-12.15s8.44,5.44,8.44,12.15v32c0,6.71-3.78,12.15-8.44,12.15" transform="translate(0 -0.57)" style="fill:#fff"/><path d="M40.62,61.05h0c-4.67,0-8.45-5.44-8.45-12.15v-32c0-6.71,3.78-12.15,8.45-12.15s8.44,5.44,8.44,12.15v32C49.06,55.61,45.28,61.05,40.62,61.05Z" transform="translate(0 -0.57)" style="fill:none;stroke:#fff;stroke-miterlimit:10;stroke-width:2px"/><path d="M43.47,418.87h0c-2.15,0-3.89-2.64-3.89-5.91V242.81c0-3.26,1.74-5.91,3.89-5.91s3.89,2.65,3.89,5.91V413c0,3.27-1.74,5.91-3.89,5.91" transform="translate(0 -0.57)" style="fill:#fff"/><path d="M43.47,418.87h0c-2.15,0-3.89-2.64-3.89-5.91V242.81c0-3.26,1.74-5.91,3.89-5.91s3.89,2.65,3.89,5.91V413C47.36,416.23,45.62,418.87,43.47,418.87Z" transform="translate(0 -0.57)" style="fill:none;stroke:#fff;stroke-miterlimit:10;stroke-width:2px"/><path d="M40.38,459.26h0c-2.14,0-3.89-2.65-3.89-5.91V420c0-3.26,1.75-5.91,3.89-5.91s3.9,2.65,3.9,5.91v33.39c0,3.26-1.75,5.91-3.9,5.91" transform="translate(0 -0.57)" style="fill:#fff"/><path d="M40.38,459.26h0c-2.14,0-3.89-2.65-3.89-5.91V420c0-3.26,1.75-5.91,3.89-5.91s3.9,2.65,3.9,5.91v33.39C44.28,456.61,42.53,459.26,40.38,459.26Z" transform="translate(0 -0.57)" style="fill:none;stroke:#fff;stroke-miterlimit:10;stroke-width:2px"/><path d="M36.06,452.79h0c-2.15,0-3.89-2.65-3.89-5.92V432.76c0-3.27,1.74-5.92,3.89-5.92S40,429.49,40,432.76v14.11c0,3.27-1.74,5.92-3.89,5.92" transform="translate(0 -0.57)" style="fill:#fff"/><path d="M36.06,452.79h0c-2.15,0-3.89-2.65-3.89-5.92V432.76c0-3.27,1.74-5.92,3.89-5.92S40,429.49,40,432.76v14.11C40,450.14,38.21,452.79,36.06,452.79Z" transform="translate(0 -0.57)" style="fill:none;stroke:#fff;stroke-miterlimit:10;stroke-width:2px"/><path d="M36.06,553.49h0c-2.15,0-3.89-2.65-3.89-5.91V455c0-3.27,1.74-5.92,3.89-5.92S40,451.71,40,455v92.6c0,3.26-1.74,5.91-3.89,5.91" transform="translate(0 -0.57)" style="fill:#fff"/><path d="M36.06,553.49h0c-2.15,0-3.89-2.65-3.89-5.91V455c0-3.27,1.74-5.92,3.89-5.92S40,451.71,40,455v92.6C40,550.84,38.21,553.49,36.06,553.49Z" transform="translate(0 -0.57)" style="fill:none;stroke:#fff;stroke-miterlimit:10;stroke-width:2px"/><path d="M44.68,553.49h0c-2.15,0-3.89-2.65-3.89-5.91V455c0-3.27,1.74-5.92,3.89-5.92s3.89,2.65,3.89,5.92v92.6c0,3.26-1.74,5.91-3.89,5.91" transform="translate(0 -0.57)" style="fill:#fff"/><path d="M44.68,553.49h0c-2.15,0-3.89-2.65-3.89-5.91V455c0-3.27,1.74-5.92,3.89-5.92s3.89,2.65,3.89,5.92v92.6C48.57,550.84,46.83,553.49,44.68,553.49Z" transform="translate(0 -0.57)" style="fill:none;stroke:#fff;stroke-miterlimit:10;stroke-width:2px"/><path d="M151.78,72.3h0c-4.67,0-8.45-5.44-8.45-12.15V16.89c0-6.71,3.78-12.15,8.45-12.15s8.44,5.44,8.44,12.15V60.15c0,6.71-3.78,12.15-8.44,12.15" transform="translate(0 -0.57)" style="fill:#fff"/><path d="M151.78,72.3h0c-4.67,0-8.45-5.44-8.45-12.15V16.89c0-6.71,3.78-12.15,8.45-12.15s8.44,5.44,8.44,12.15V60.15C160.22,66.86,156.44,72.3,151.78,72.3Z" transform="translate(0 -0.57)" style="fill:none;stroke:#fff;stroke-miterlimit:10;stroke-width:2px"/><path d="M147.22,454.7h0c-2.15,0-3.89-2.65-3.89-5.92v-92.6c0-3.26,1.74-5.91,3.89-5.91s3.89,2.65,3.89,5.91v92.6c0,3.27-1.74,5.92-3.89,5.92" transform="translate(0 -0.57)" style="fill:#fff"/><path d="M147.22,454.7h0c-2.15,0-3.89-2.65-3.89-5.92v-92.6c0-3.26,1.74-5.91,3.89-5.91s3.89,2.65,3.89,5.91v92.6C151.11,452.05,149.37,454.7,147.22,454.7Z" transform="translate(0 -0.57)" style="fill:none;stroke:#fff;stroke-miterlimit:10;stroke-width:2px"/><path d="M147.22,553.49h0c-2.15,0-3.89-2.65-3.89-5.91V455c0-3.27,1.74-5.92,3.89-5.92s3.89,2.65,3.89,5.92v92.6c0,3.26-1.74,5.91-3.89,5.91" transform="translate(0 -0.57)" style="fill:#fff"/><path d="M147.22,553.49h0c-2.15,0-3.89-2.65-3.89-5.91V455c0-3.27,1.74-5.92,3.89-5.92s3.89,2.65,3.89,5.92v92.6C151.11,550.84,149.37,553.49,147.22,553.49Z" transform="translate(0 -0.57)" style="fill:none;stroke:#fff;stroke-miterlimit:10;stroke-width:2px"/><path d="M155.84,172.11h0c-2.15,0-3.89-2.65-3.89-5.92V73.59c0-3.26,1.74-5.91,3.89-5.91s3.89,2.65,3.89,5.91v92.6c0,3.27-1.74,5.92-3.89,5.92" transform="translate(0 -0.57)" style="fill:#fff"/><path d="M155.84,172.11h0c-2.15,0-3.89-2.65-3.89-5.92V73.59c0-3.26,1.74-5.91,3.89-5.91s3.89,2.65,3.89,5.91v92.6C159.73,169.46,158,172.11,155.84,172.11Z" transform="translate(0 -0.57)" style="fill:none;stroke:#fff;stroke-miterlimit:10;stroke-width:2px"/><path d="M155.84,266.3h0c-2.15,0-3.89-2.64-3.89-5.91v-92.6c0-3.27,1.74-5.91,3.89-5.91s3.89,2.64,3.89,5.91v92.6c0,3.27-1.74,5.91-3.89,5.91" transform="translate(0 -0.57)" style="fill:#fff"/><path d="M155.84,266.3h0c-2.15,0-3.89-2.64-3.89-5.91v-92.6c0-3.27,1.74-5.91,3.89-5.91s3.89,2.64,3.89,5.91v92.6C159.73,263.66,158,266.3,155.84,266.3Z" transform="translate(0 -0.57)" style="fill:none;stroke:#fff;stroke-miterlimit:10;stroke-width:2px"/><path d="M155.84,365.1h0c-2.15,0-3.89-2.65-3.89-5.92v-92.6c0-3.26,1.74-5.91,3.89-5.91s3.89,2.65,3.89,5.91v92.6c0,3.27-1.74,5.92-3.89,5.92" transform="translate(0 -0.57)" style="fill:#fff"/><path d="M155.84,365.1h0c-2.15,0-3.89-2.65-3.89-5.92v-92.6c0-3.26,1.74-5.91,3.89-5.91s3.89,2.65,3.89,5.91v92.6C159.73,362.45,158,365.1,155.84,365.1Z" transform="translate(0 -0.57)" style="fill:none;stroke:#fff;stroke-miterlimit:10;stroke-width:2px"/><path d="M155.84,454.7h0c-2.15,0-3.89-2.65-3.89-5.92v-92.6c0-3.26,1.74-5.91,3.89-5.91s3.89,2.65,3.89,5.91v92.6c0,3.27-1.74,5.92-3.89,5.92" transform="translate(0 -0.57)" style="fill:#fff"/><path d="M155.84,454.7h0c-2.15,0-3.89-2.65-3.89-5.92v-92.6c0-3.26,1.74-5.91,3.89-5.91s3.89,2.65,3.89,5.91v92.6C159.73,452.05,158,454.7,155.84,454.7Z" transform="translate(0 -0.57)" style="fill:none;stroke:#fff;stroke-miterlimit:10;stroke-width:2px"/><path d="M155.84,553.49h0c-2.15,0-3.89-2.65-3.89-5.91V455c0-3.27,1.74-5.92,3.89-5.92s3.89,2.65,3.89,5.92v92.6c0,3.26-1.74,5.91-3.89,5.91" transform="translate(0 -0.57)" style="fill:#fff"/><path d="M155.84,553.49h0c-2.15,0-3.89-2.65-3.89-5.91V455c0-3.27,1.74-5.92,3.89-5.92s3.89,2.65,3.89,5.92v92.6C159.73,550.84,158,553.49,155.84,553.49Z" transform="translate(0 -0.57)" style="fill:none;stroke:#fff;stroke-miterlimit:10;stroke-width:2px"/><path d="M10.26,109.37h0c-1.66,6.29-3.75,2-4.65-9.59S5.32,73.69,7,67.4s3.75-2,4.65,9.59h0c.91,11.59.29,26.08-1.38,32.38" transform="translate(0 -0.57)" style="fill:#fff"/><path d="M10.26,109.37h0c-1.66,6.29-3.75,2-4.65-9.59S5.32,73.69,7,67.4s3.75-2,4.65,9.59h0C12.55,88.58,11.93,103.07,10.26,109.37Z" transform="translate(0 -0.57)" style="fill:none;stroke:#fff;stroke-miterlimit:10;stroke-width:2px"/><path d="M13.75,149.07h0c-1.67,6.29-3.75,2-4.66-9.59s-.29-26.09,1.38-32.38,3.75-2,4.66,9.59.28,26.08-1.38,32.38" transform="translate(0 -0.57)" style="fill:#fff"/><path d="M13.75,149.07h0c-1.67,6.29-3.75,2-4.66-9.59s-.29-26.09,1.38-32.38,3.75-2,4.66,9.59S15.41,142.77,13.75,149.07Z" transform="translate(0 -0.57)" style="fill:none;stroke:#fff;stroke-miterlimit:10;stroke-width:2px"/><path d="M17.07,186.92h0c-1.67,6.3-3.75,2-4.66-9.59s-.28-26.08,1.38-32.37,3.75-2,4.66,9.58.29,26.09-1.38,32.38" transform="translate(0 -0.57)" style="fill:#fff"/><path d="M17.07,186.92h0c-1.67,6.3-3.75,2-4.66-9.59s-.28-26.08,1.38-32.37,3.75-2,4.66,9.58S18.74,180.63,17.07,186.92Z" transform="translate(0 -0.57)" style="fill:none;stroke:#fff;stroke-miterlimit:10;stroke-width:2px"/><path d="M20.55,226.62h0c-1.66,6.3-3.75,2-4.65-9.59s-.29-26.08,1.38-32.37,3.75-2,4.65,9.59h0c.91,11.58.29,26.08-1.38,32.37" transform="translate(0 -0.57)" style="fill:#fff"/><path d="M20.55,226.62h0c-1.66,6.3-3.75,2-4.65-9.59s-.29-26.08,1.38-32.37,3.75-2,4.65,9.59h0C22.84,205.83,22.22,220.33,20.55,226.62Z" transform="translate(0 -0.57)" style="fill:none;stroke:#fff;stroke-miterlimit:10;stroke-width:2px"/><path d="M23.71,262.63h0c-1.66,6.29-3.75,2-4.65-9.59s-.29-26.08,1.38-32.37,3.75-2,4.65,9.58h0c.91,11.59.29,26.09-1.38,32.38" transform="translate(0 -0.57)" style="fill:#fff"/><path d="M23.71,262.63h0c-1.66,6.29-3.75,2-4.65-9.59s-.29-26.08,1.38-32.37,3.75-2,4.65,9.58h0C26,241.84,25.38,256.34,23.71,262.63Z" transform="translate(0 -0.57)" style="fill:none;stroke:#fff;stroke-miterlimit:10;stroke-width:2px"/><path d="M27.2,302.33h0c-1.67,6.3-3.75,2-4.66-9.59s-.28-26.08,1.38-32.37,3.75-2,4.66,9.59.28,26.08-1.38,32.37" transform="translate(0 -0.57)" style="fill:#fff"/><path d="M27.2,302.33h0c-1.67,6.3-3.75,2-4.66-9.59s-.28-26.08,1.38-32.37,3.75-2,4.66,9.59S28.86,296,27.2,302.33Z" transform="translate(0 -0.57)" style="fill:none;stroke:#fff;stroke-miterlimit:10;stroke-width:2px"/><path d="M162.13,109.37h0c-1.67,6.29-3.75,2-4.66-9.59s-.28-26.09,1.38-32.38,3.75-2,4.66,9.59h0c.9,11.59.28,26.08-1.38,32.38" transform="translate(0 -0.57)" style="fill:#fff"/><path d="M162.13,109.37h0c-1.67,6.29-3.75,2-4.66-9.59s-.28-26.09,1.38-32.38,3.75-2,4.66,9.59h0C164.41,88.58,163.79,103.07,162.13,109.37Z" transform="translate(0 -0.57)" style="fill:none;stroke:#fff;stroke-miterlimit:10;stroke-width:2px"/><path d="M165.61,149.07h0c-1.66,6.29-3.75,2-4.65-9.59s-.29-26.09,1.38-32.38,3.75-2,4.65,9.59.29,26.08-1.38,32.38" transform="translate(0 -0.57)" style="fill:#fff"/><path d="M165.61,149.07h0c-1.66,6.29-3.75,2-4.65-9.59s-.29-26.09,1.38-32.38,3.75-2,4.65,9.59S167.28,142.77,165.61,149.07Z" transform="translate(0 -0.57)" style="fill:none;stroke:#fff;stroke-miterlimit:10;stroke-width:2px"/><path d="M168.93,186.92h0c-1.66,6.3-3.75,2-4.65-9.59S164,151.25,165.66,145s3.75-2,4.65,9.58.29,26.09-1.38,32.38" transform="translate(0 -0.57)" style="fill:#fff"/><path d="M168.93,186.92h0c-1.66,6.3-3.75,2-4.65-9.59S164,151.25,165.66,145s3.75-2,4.65,9.58S170.6,180.63,168.93,186.92Z" transform="translate(0 -0.57)" style="fill:none;stroke:#fff;stroke-miterlimit:10;stroke-width:2px"/><path d="M172.42,226.62h0c-1.67,6.3-3.75,2-4.66-9.59s-.28-26.08,1.38-32.37,3.75-2,4.66,9.59h0c.9,11.58.29,26.08-1.38,32.37" transform="translate(0 -0.57)" style="fill:#fff"/><path d="M172.42,226.62h0c-1.67,6.3-3.75,2-4.66-9.59s-.28-26.08,1.38-32.37,3.75-2,4.66,9.59h0C174.7,205.83,174.09,220.33,172.42,226.62Z" transform="translate(0 -0.57)" style="fill:none;stroke:#fff;stroke-miterlimit:10;stroke-width:2px"/><path d="M175.58,262.63h0c-1.67,6.29-3.75,2-4.66-9.59s-.28-26.08,1.38-32.37,3.75-2,4.66,9.58h0c.9,11.59.29,26.09-1.38,32.38" transform="translate(0 -0.57)" style="fill:#fff"/><path d="M175.58,262.63h0c-1.67,6.29-3.75,2-4.66-9.59s-.28-26.08,1.38-32.37,3.75-2,4.66,9.58h0C177.86,241.84,177.25,256.34,175.58,262.63Z" transform="translate(0 -0.57)" style="fill:none;stroke:#fff;stroke-miterlimit:10;stroke-width:2px"/><path d="M179.06,302.33h0c-1.66,6.3-3.75,2-4.65-9.59s-.29-26.08,1.38-32.37,3.75-2,4.65,9.59.29,26.08-1.38,32.37" transform="translate(0 -0.57)" style="fill:#fff"/><path d="M179.06,302.33h0c-1.66,6.3-3.75,2-4.65-9.59s-.29-26.08,1.38-32.37,3.75-2,4.65,9.59S180.73,296,179.06,302.33Z" transform="translate(0 -0.57)" style="fill:none;stroke:#fff;stroke-miterlimit:10;stroke-width:2px"/><path d="M164.72,387.82h0c-1.62,6.49-3.79,1.87-4.84-10.33s-.58-27.34,1-33.83,3.79-1.87,4.84,10.33.58,27.34-1,33.83" transform="translate(0 -0.57)" style="fill:#fff"/><path d="M164.72,387.82h0c-1.62,6.49-3.79,1.87-4.84-10.33s-.58-27.34,1-33.83,3.79-1.87,4.84,10.33S166.34,381.33,164.72,387.82Z" transform="translate(0 -0.57)" style="fill:none;stroke:#fff;stroke-miterlimit:10;stroke-width:2px"/><path d="M170.88,387.82h0c-1.62,6.49-3.79,1.87-4.84-10.33s-.58-27.34,1-33.83,3.79-1.87,4.84,10.33.58,27.34-1,33.83" transform="translate(0 -0.57)" style="fill:#fff"/><path d="M170.88,387.82h0c-1.62,6.49-3.79,1.87-4.84-10.33s-.58-27.34,1-33.83,3.79-1.87,4.84,10.33S172.5,381.33,170.88,387.82Z" transform="translate(0 -0.57)" style="fill:none;stroke:#fff;stroke-miterlimit:10;stroke-width:2px"/><path d="M175.05,427.65h0c-1.63,6.49-3.79,1.87-4.84-10.32s-.59-27.34,1-33.84,3.78-1.87,4.83,10.33.59,27.34-1,33.83" transform="translate(0 -0.57)" style="fill:#fff"/><path d="M175.05,427.65h0c-1.63,6.49-3.79,1.87-4.84-10.32s-.59-27.34,1-33.84,3.78-1.87,4.83,10.33S176.67,421.16,175.05,427.65Z" transform="translate(0 -0.57)" style="fill:none;stroke:#fff;stroke-miterlimit:10;stroke-width:2px"/><path d="M179.08,469.43h0c-1.62,6.49-3.79,1.87-4.84-10.33s-.58-27.34,1-33.83,3.79-1.87,4.83,10.33.59,27.34-1,33.83" transform="translate(0 -0.57)" style="fill:#fff"/><path d="M179.08,469.43h0c-1.62,6.49-3.79,1.87-4.84-10.33s-.58-27.34,1-33.83,3.79-1.87,4.83,10.33S180.7,462.94,179.08,469.43Z" transform="translate(0 -0.57)" style="fill:none;stroke:#fff;stroke-miterlimit:10;stroke-width:2px"/><path d="M182.74,507.32h0c-1.63,6.49-3.79,1.87-4.84-10.33s-.59-27.34,1-33.83,3.78-1.87,4.83,10.33.59,27.34-1,33.83" transform="translate(0 -0.57)" style="fill:#fff"/><path d="M182.74,507.32h0c-1.63,6.49-3.79,1.87-4.84-10.33s-.59-27.34,1-33.83,3.78-1.87,4.83,10.33S184.36,500.83,182.74,507.32Z" transform="translate(0 -0.57)" style="fill:none;stroke:#fff;stroke-miterlimit:10;stroke-width:2px"/><path d="M186.77,549.1h0c-1.62,6.49-3.79,1.86-4.84-10.33s-.58-27.34,1-33.83,3.79-1.87,4.84,10.32.58,27.34-1,33.84" transform="translate(0 -0.57)" style="fill:#fff"/><path d="M186.77,549.1h0c-1.62,6.49-3.79,1.86-4.84-10.33s-.58-27.34,1-33.83,3.79-1.87,4.84,10.32S188.39,542.6,186.77,549.1Z" transform="translate(0 -0.57)" style="fill:none;stroke:#fff;stroke-miterlimit:10;stroke-width:2px"/><path d="M4.43,503.9h0c-1.89,0-3.43,2.36-3.43,5.28v37.19c0,2.92,1.54,5.28,3.43,5.28s3.44-2.36,3.44-5.28V509.18c0-2.92-1.54-5.28-3.44-5.28" transform="translate(0 -0.57)" style="fill:#fff"/><path d="M4.43,503.9h0c-1.89,0-3.43,2.36-3.43,5.28v37.19c0,2.92,1.54,5.28,3.43,5.28s3.44-2.36,3.44-5.28V509.18C7.87,506.26,6.33,503.9,4.43,503.9Z" transform="translate(0 -0.57)" style="fill:none;stroke:#fff;stroke-miterlimit:10;stroke-width:2px"/><path d="M4.43,458.72h0C2.54,458.72,1,461.09,1,464v37.18c0,2.92,1.54,5.29,3.43,5.29s3.44-2.37,3.44-5.29V464c0-2.92-1.54-5.29-3.44-5.29" transform="translate(0 -0.57)" style="fill:#fff"/><path d="M4.43,458.72h0C2.54,458.72,1,461.09,1,464v37.18c0,2.92,1.54,5.29,3.43,5.29s3.44-2.37,3.44-5.29V464C7.87,461.09,6.33,458.72,4.43,458.72Z" transform="translate(0 -0.57)" style="fill:none;stroke:#fff;stroke-miterlimit:10;stroke-width:2px"/><path d="M4.43,415.65h0C2.54,415.65,1,418,1,420.93v37.18c0,2.92,1.54,5.29,3.43,5.29s3.44-2.37,3.44-5.29V420.93c0-2.92-1.54-5.28-3.44-5.28" transform="translate(0 -0.57)" style="fill:#fff"/><path d="M4.43,415.65h0C2.54,415.65,1,418,1,420.93v37.18c0,2.92,1.54,5.29,3.43,5.29s3.44-2.37,3.44-5.29V420.93C7.87,418,6.33,415.65,4.43,415.65Z" transform="translate(0 -0.57)" style="fill:none;stroke:#fff;stroke-miterlimit:10;stroke-width:2px"/><path d="M4.43,370.47h0c-1.89,0-3.43,2.36-3.43,5.28v37.19c0,2.92,1.54,5.28,3.43,5.28s3.44-2.36,3.44-5.28V375.75c0-2.92-1.54-5.28-3.44-5.28" transform="translate(0 -0.57)" style="fill:#fff"/><path d="M4.43,370.47h0c-1.89,0-3.43,2.36-3.43,5.28v37.19c0,2.92,1.54,5.28,3.43,5.28s3.44-2.36,3.44-5.28V375.75C7.87,372.83,6.33,370.47,4.43,370.47Z" transform="translate(0 -0.57)" style="fill:none;stroke:#fff;stroke-miterlimit:10;stroke-width:2px"/><path d="M4.43,329.49h0c-1.89,0-3.43,2.37-3.43,5.29V372c0,2.92,1.54,5.29,3.43,5.29s3.44-2.37,3.44-5.29V334.78c0-2.92-1.54-5.29-3.44-5.29" transform="translate(0 -0.57)" style="fill:#fff"/><path d="M4.43,329.49h0c-1.89,0-3.43,2.37-3.43,5.29V372c0,2.92,1.54,5.29,3.43,5.29s3.44-2.37,3.44-5.29V334.78C7.87,331.86,6.33,329.49,4.43,329.49Z" transform="translate(0 -0.57)" style="fill:none;stroke:#fff;stroke-miterlimit:10;stroke-width:2px"/><path d="M4.43,284.32h0c-1.89,0-3.43,2.36-3.43,5.28v37.18c0,2.92,1.54,5.29,3.43,5.29s3.44-2.37,3.44-5.29V289.6c0-2.92-1.54-5.28-3.44-5.28" transform="translate(0 -0.57)" style="fill:#fff"/><path d="M4.43,284.32h0c-1.89,0-3.43,2.36-3.43,5.28v37.18c0,2.92,1.54,5.29,3.43,5.29s3.44-2.37,3.44-5.29V289.6C7.87,286.68,6.33,284.32,4.43,284.32Z" transform="translate(0 -0.57)" style="fill:none;stroke:#fff;stroke-miterlimit:10;stroke-width:2px"/><path d="M10.45,467.31h0c-1.67-6.29-3.75-2-4.66,9.59S5.5,503,7.17,509.28s3.75,2,4.65-9.59h0c.91-11.59.29-26.09-1.37-32.38" transform="translate(0 -0.57)" style="fill:#fff"/><path d="M10.45,467.31h0c-1.67-6.29-3.75-2-4.66,9.59S5.5,503,7.17,509.28s3.75,2,4.65-9.59h0C12.73,488.1,12.11,473.6,10.45,467.31Z" transform="translate(0 -0.57)" style="fill:none;stroke:#fff;stroke-miterlimit:10;stroke-width:2px"/><path d="M13.77,429.45h0c-1.67-6.29-3.75-2-4.66,9.59s-.28,26.09,1.38,32.38,3.75,2,4.66-9.59.28-26.08-1.38-32.38" transform="translate(0 -0.57)" style="fill:#fff"/><path d="M13.77,429.45h0c-1.67-6.29-3.75-2-4.66,9.59s-.28,26.09,1.38,32.38,3.75,2,4.66-9.59S15.43,435.75,13.77,429.45Z" transform="translate(0 -0.57)" style="fill:none;stroke:#fff;stroke-miterlimit:10;stroke-width:2px"/><path d="M17.25,389.75h0c-1.66-6.29-3.75-2-4.65,9.59s-.29,26.09,1.38,32.38,3.75,2,4.65-9.59.29-26.08-1.38-32.38" transform="translate(0 -0.57)" style="fill:#fff"/><path d="M17.25,389.75h0c-1.66-6.29-3.75-2-4.65,9.59s-.29,26.09,1.38,32.38,3.75,2,4.65-9.59S18.92,396.05,17.25,389.75Z" transform="translate(0 -0.57)" style="fill:none;stroke:#fff;stroke-miterlimit:10;stroke-width:2px"/><path d="M20.41,353.74h0c-1.66-6.29-3.75-2-4.65,9.59s-.29,26.09,1.38,32.38,3.75,2,4.65-9.59.29-26.08-1.38-32.38" transform="translate(0 -0.57)" style="fill:#fff"/><path d="M20.41,353.74h0c-1.66-6.29-3.75-2-4.65,9.59s-.29,26.09,1.38,32.38,3.75,2,4.65-9.59S22.08,360,20.41,353.74Z" transform="translate(0 -0.57)" style="fill:none;stroke:#fff;stroke-miterlimit:10;stroke-width:2px"/><path d="M23.9,314h0c-1.67-6.29-3.75-2-4.66,9.59S19,349.72,20.62,356s3.75,2,4.66-9.59h0c.9-11.59.28-26.08-1.38-32.38" transform="translate(0 -0.57)" style="fill:#fff"/><path d="M23.9,314h0c-1.67-6.29-3.75-2-4.66,9.59S19,349.72,20.62,356s3.75,2,4.66-9.59h0C26.18,334.83,25.56,320.34,23.9,314Z" transform="translate(0 -0.57)" style="fill:none;stroke:#fff;stroke-miterlimit:10;stroke-width:2px"/><path d="M82.23,490.46h0c-1.31-8.84-3-2.81-3.66,13.47s-.23,36.63,1.08,45.47h0c1.31,8.84,2.95,2.81,3.66-13.46s.22-36.64-1.08-45.48" transform="translate(0 -0.57)" style="fill:#fff"/><path d="M82.23,490.46h0c-1.31-8.84-3-2.81-3.66,13.47s-.23,36.63,1.08,45.47h0c1.31,8.84,2.95,2.81,3.66-13.46S83.53,499.3,82.23,490.46Z" transform="translate(0 -0.57)" style="fill:none;stroke:#fff;stroke-miterlimit:10;stroke-width:2px"/><path d="M84.91,437.29h0c-1.31-8.84-2.94-2.81-3.65,13.47S81,487.4,82.34,496.23,85.28,499,86,482.77s.22-36.64-1.09-45.48" transform="translate(0 -0.57)" style="fill:#fff"/><path d="M84.91,437.29h0c-1.31-8.84-2.94-2.81-3.65,13.47S81,487.4,82.34,496.23,85.28,499,86,482.77,86.22,446.13,84.91,437.29Z" transform="translate(0 -0.57)" style="fill:none;stroke:#fff;stroke-miterlimit:10;stroke-width:2px"/><path d="M87.73,381.53h0c-1.31-8.84-2.94-2.81-3.65,13.46s-.23,36.64,1.08,45.48h0c1.31,8.84,2.94,2.81,3.65-13.47s.23-36.63-1.08-45.47" transform="translate(0 -0.57)" style="fill:#fff"/><path d="M87.73,381.53h0c-1.31-8.84-2.94-2.81-3.65,13.46s-.23,36.64,1.08,45.48h0c1.31,8.84,2.94,2.81,3.65-13.47S89,390.37,87.73,381.53Z" transform="translate(0 -0.57)" style="fill:none;stroke:#fff;stroke-miterlimit:10;stroke-width:2px"/><path d="M99.16,181h0c-1.31-28.92-3-9.19-3.66,44.06s-.22,119.87,1.08,148.79,3,9.19,3.66-44.07S100.46,209.9,99.16,181" transform="translate(0 -0.57)" style="fill:#fff"/><path d="M99.16,181h0c-1.31-28.92-3-9.19-3.66,44.06s-.22,119.87,1.08,148.79,3,9.19,3.66-44.07S100.46,209.9,99.16,181Z" transform="translate(0 -0.57)" style="fill:none;stroke:#fff;stroke-miterlimit:10;stroke-width:2px"/><path d="M102,116h0c-1.3-8.84-2.94-2.81-3.65,13.46s-.23,36.64,1.08,45.48,2.95,2.81,3.66-13.47.22-36.63-1.09-45.47" transform="translate(0 -0.57)" style="fill:#fff"/><path d="M102,116h0c-1.3-8.84-2.94-2.81-3.65,13.46s-.23,36.64,1.08,45.48,2.95,2.81,3.66-13.47S103.28,124.81,102,116Z" transform="translate(0 -0.57)" style="fill:none;stroke:#fff;stroke-miterlimit:10;stroke-width:2px"/><path d="M104.53,65.39h0c-1.31-8.84-2.94-2.81-3.65,13.47s-.23,36.64,1.08,45.47,2.94,2.81,3.65-13.46.23-36.64-1.08-45.48" transform="translate(0 -0.57)" style="fill:#fff"/><path d="M104.53,65.39h0c-1.31-8.84-2.94-2.81-3.65,13.47s-.23,36.64,1.08,45.47,2.94,2.81,3.65-13.46S105.84,74.23,104.53,65.39Z" transform="translate(0 -0.57)" style="fill:none;stroke:#fff;stroke-miterlimit:10;stroke-width:2px"/><path d="M107.35,9.63h0C106,.79,104.4,6.82,103.69,23.09s-.22,36.64,1.09,45.48,2.94,2.81,3.65-13.47h0c.71-16.27.23-36.63-1.08-45.47" transform="translate(0 -0.57)" style="fill:#fff"/><path d="M107.35,9.63h0C106,.79,104.4,6.82,103.69,23.09s-.22,36.64,1.09,45.48,2.94,2.81,3.65-13.47h0C109.14,38.83,108.66,18.47,107.35,9.63Z" transform="translate(0 -0.57)" style="fill:none;stroke:#fff;stroke-miterlimit:10;stroke-width:2px"/><path d="M79.68,490.46h0c1.31-8.84,2.94-2.81,3.65,13.47s.23,36.63-1.08,45.47h0c-1.31,8.84-2.94,2.81-3.65-13.46s-.23-36.64,1.08-45.48" transform="translate(0 -0.57)" style="fill:#fff"/><path d="M79.68,490.46h0c1.31-8.84,2.94-2.81,3.65,13.47s.23,36.63-1.08,45.47h0c-1.31,8.84-2.94,2.81-3.65-13.46S78.37,499.3,79.68,490.46Z" transform="translate(0 -0.57)" style="fill:none;stroke:#fff;stroke-miterlimit:10;stroke-width:2px"/><path d="M77,437.29h0c1.31-8.84,3-2.81,3.66,13.47s.22,36.64-1.09,45.47-2.94,2.81-3.65-13.46-.23-36.64,1.08-45.48" transform="translate(0 -0.57)" style="fill:#fff"/><path d="M77,437.29h0c1.31-8.84,3-2.81,3.66,13.47s.22,36.64-1.09,45.47-2.94,2.81-3.65-13.46S75.68,446.13,77,437.29Z" transform="translate(0 -0.57)" style="fill:none;stroke:#fff;stroke-miterlimit:10;stroke-width:2px"/><path d="M74.17,381.53h0c1.31-8.84,3-2.81,3.66,13.46s.22,36.64-1.08,45.48h0c-1.31,8.84-3,2.81-3.66-13.47s-.23-36.63,1.08-45.47" transform="translate(0 -0.57)" style="fill:#fff"/><path d="M74.17,381.53h0c1.31-8.84,3-2.81,3.66,13.46s.22,36.64-1.08,45.48h0c-1.31,8.84-3,2.81-3.66-13.47S72.86,390.37,74.17,381.53Z" transform="translate(0 -0.57)" style="fill:none;stroke:#fff;stroke-miterlimit:10;stroke-width:2px"/><path d="M62.75,181h0c1.31-28.92,2.94-9.19,3.65,44.06s.23,119.87-1.08,148.79-2.94,9.19-3.65-44.07S61.44,209.9,62.75,181" transform="translate(0 -0.57)" style="fill:#fff"/><path d="M62.75,181h0c1.31-28.92,2.94-9.19,3.65,44.06s.23,119.87-1.08,148.79-2.94,9.19-3.65-44.07S61.44,209.9,62.75,181Z" transform="translate(0 -0.57)" style="fill:none;stroke:#fff;stroke-miterlimit:10;stroke-width:2px"/><path d="M59.93,116h0c1.31-8.84,2.94-2.81,3.65,13.46s.23,36.64-1.08,45.48-2.94,2.81-3.65-13.47-.23-36.63,1.08-45.47" transform="translate(0 -0.57)" style="fill:#fff"/><path d="M59.93,116h0c1.31-8.84,2.94-2.81,3.65,13.46s.23,36.64-1.08,45.48-2.94,2.81-3.65-13.47S58.62,124.81,59.93,116Z" transform="translate(0 -0.57)" style="fill:none;stroke:#fff;stroke-miterlimit:10;stroke-width:2px"/><path d="M57.37,65.39h0c1.31-8.84,3-2.81,3.66,13.47s.22,36.64-1.08,45.47-3,2.81-3.66-13.46-.22-36.64,1.08-45.48" transform="translate(0 -0.57)" style="fill:#fff"/><path d="M57.37,65.39h0c1.31-8.84,3-2.81,3.66,13.47s.22,36.64-1.08,45.47-3,2.81-3.66-13.46S56.07,74.23,57.37,65.39Z" transform="translate(0 -0.57)" style="fill:none;stroke:#fff;stroke-miterlimit:10;stroke-width:2px"/><path d="M54.55,9.63h0c1.31-8.84,3-2.81,3.66,13.46s.23,36.64-1.08,45.48-3,2.81-3.66-13.47h0c-.71-16.27-.22-36.63,1.08-45.47" transform="translate(0 -0.57)" style="fill:#fff"/><path d="M54.55,9.63h0c1.31-8.84,3-2.81,3.66,13.46s.23,36.64-1.08,45.48-3,2.81-3.66-13.47h0C52.76,38.83,53.25,18.47,54.55,9.63Z" transform="translate(0 -0.57)" style="fill:none;stroke:#fff;stroke-miterlimit:10;stroke-width:2px"/><path d="M115.61,53.43h0c-1.49,0-2.69-1.91-2.69-4.27V9.57c0-2.36,1.2-4.27,2.69-4.27s2.7,1.91,2.7,4.27V49.16c0,2.36-1.21,4.27-2.7,4.27" transform="translate(0 -0.57)" style="fill:#fff"/><path d="M115.61,53.43h0c-1.49,0-2.69-1.91-2.69-4.27V9.57c0-2.36,1.2-4.27,2.69-4.27s2.7,1.91,2.7,4.27V49.16C118.31,51.52,117.1,53.43,115.61,53.43Z" transform="translate(0 -0.57)" style="fill:none;stroke:#fff;stroke-miterlimit:10;stroke-width:2px"/><path d="M115.61,99h0c-1.49,0-2.69-1.91-2.69-4.28V55.11c0-2.36,1.2-4.28,2.69-4.28s2.7,1.92,2.7,4.28V94.69c0,2.37-1.21,4.28-2.7,4.28" transform="translate(0 -0.57)" style="fill:#fff"/><path d="M115.61,99h0c-1.49,0-2.69-1.91-2.69-4.28V55.11c0-2.36,1.2-4.28,2.69-4.28s2.7,1.92,2.7,4.28V94.69C118.31,97.06,117.1,99,115.61,99Z" transform="translate(0 -0.57)" style="fill:none;stroke:#fff;stroke-miterlimit:10;stroke-width:2px"/><path d="M115.61,142.39h0c-1.49,0-2.69-1.91-2.69-4.28V98.53c0-2.36,1.2-4.28,2.69-4.28s2.7,1.92,2.7,4.28v39.58c0,2.37-1.21,4.28-2.7,4.28" transform="translate(0 -0.57)" style="fill:#fff"/><path d="M115.61,142.39h0c-1.49,0-2.69-1.91-2.69-4.28V98.53c0-2.36,1.2-4.28,2.69-4.28s2.7,1.92,2.7,4.28v39.58C118.31,140.48,117.1,142.39,115.61,142.39Z" transform="translate(0 -0.57)" style="fill:none;stroke:#fff;stroke-miterlimit:10;stroke-width:2px"/><path d="M115.61,187.93h0c-1.49,0-2.69-1.92-2.69-4.28V144.07c0-2.36,1.2-4.28,2.69-4.28s2.7,1.92,2.7,4.28v39.58c0,2.36-1.21,4.28-2.7,4.28" transform="translate(0 -0.57)" style="fill:#fff"/><path d="M115.61,187.93h0c-1.49,0-2.69-1.92-2.69-4.28V144.07c0-2.36,1.2-4.28,2.69-4.28s2.7,1.92,2.7,4.28v39.58C118.31,186,117.1,187.93,115.61,187.93Z" transform="translate(0 -0.57)" style="fill:none;stroke:#fff;stroke-miterlimit:10;stroke-width:2px"/><path d="M115.61,229.23h0c-1.49,0-2.69-1.91-2.69-4.28V185.37c0-2.36,1.2-4.28,2.69-4.28s2.7,1.92,2.7,4.28V225c0,2.37-1.21,4.28-2.7,4.28" transform="translate(0 -0.57)" style="fill:#fff"/><path d="M115.61,229.23h0c-1.49,0-2.69-1.91-2.69-4.28V185.37c0-2.36,1.2-4.28,2.69-4.28s2.7,1.92,2.7,4.28V225C118.31,227.32,117.1,229.23,115.61,229.23Z" transform="translate(0 -0.57)" style="fill:none;stroke:#fff;stroke-miterlimit:10;stroke-width:2px"/><path d="M115.61,274.77h0c-1.49,0-2.69-1.92-2.69-4.28V230.91c0-2.36,1.2-4.28,2.69-4.28s2.7,1.92,2.7,4.28v39.58c0,2.36-1.21,4.28-2.7,4.28" transform="translate(0 -0.57)" style="fill:#fff"/><path d="M115.61,274.77h0c-1.49,0-2.69-1.92-2.69-4.28V230.91c0-2.36,1.2-4.28,2.69-4.28s2.7,1.92,2.7,4.28v39.58C118.31,272.85,117.1,274.77,115.61,274.77Z" transform="translate(0 -0.57)" style="fill:none;stroke:#fff;stroke-miterlimit:10;stroke-width:2px"/><path d="M120.29,99.86h0c-1.31,6.35-3,2-3.66-9.66s-.22-26.29,1.09-32.64,2.94-2,3.65,9.67.23,26.29-1.08,32.63" transform="translate(0 -0.57)" style="fill:#fff"/><path d="M120.29,99.86h0c-1.31,6.35-3,2-3.66-9.66s-.22-26.29,1.09-32.64,2.94-2,3.65,9.67S121.6,93.52,120.29,99.86Z" transform="translate(0 -0.57)" style="fill:none;stroke:#fff;stroke-miterlimit:10;stroke-width:2px"/><path d="M123.11,139.88h0c-1.31,6.35-3,2-3.66-9.66s-.22-26.3,1.08-32.64,3-2,3.66,9.67.22,26.29-1.08,32.63" transform="translate(0 -0.57)" style="fill:#fff"/><path d="M123.11,139.88h0c-1.31,6.35-3,2-3.66-9.66s-.22-26.3,1.08-32.64,3-2,3.66,9.67S124.41,133.54,123.11,139.88Z" transform="translate(0 -0.57)" style="fill:none;stroke:#fff;stroke-miterlimit:10;stroke-width:2px"/><path d="M125.79,178h0c-1.3,6.34-2.94,2-3.65-9.66s-.23-26.3,1.08-32.64,3-2,3.66,9.66.22,26.3-1.09,32.64" transform="translate(0 -0.57)" style="fill:#fff"/><path d="M125.79,178h0c-1.3,6.34-2.94,2-3.65-9.66s-.23-26.3,1.08-32.64,3-2,3.66,9.66S127.1,171.7,125.79,178Z" transform="translate(0 -0.57)" style="fill:none;stroke:#fff;stroke-miterlimit:10;stroke-width:2px"/><path d="M128.61,218.06h0c-1.31,6.34-2.94,2-3.65-9.67s-.23-26.29,1.08-32.63,2.94-2,3.66,9.66.22,26.3-1.09,32.64" transform="translate(0 -0.57)" style="fill:#fff"/><path d="M128.61,218.06h0c-1.31,6.34-2.94,2-3.65-9.67s-.23-26.29,1.08-32.63,2.94-2,3.66,9.66S129.92,211.72,128.61,218.06Z" transform="translate(0 -0.57)" style="fill:none;stroke:#fff;stroke-miterlimit:10;stroke-width:2px"/><path d="M243.61,53.43h0c-1.49,0-2.7-1.91-2.7-4.27V9.57c0-2.36,1.21-4.27,2.7-4.27s2.69,1.91,2.69,4.27V49.16c0,2.36-1.2,4.27-2.69,4.27" transform="translate(0 -0.57)" style="fill:#fff"/><path d="M243.61,53.43h0c-1.49,0-2.7-1.91-2.7-4.27V9.57c0-2.36,1.21-4.27,2.7-4.27s2.69,1.91,2.69,4.27V49.16C246.3,51.52,245.1,53.43,243.61,53.43Z" transform="translate(0 -0.57)" style="fill:none;stroke:#fff;stroke-miterlimit:10;stroke-width:2px"/><path d="M243.61,99h0c-1.49,0-2.7-1.91-2.7-4.28V55.11c0-2.36,1.21-4.28,2.7-4.28s2.69,1.92,2.69,4.28V94.69c0,2.37-1.2,4.28-2.69,4.28" transform="translate(0 -0.57)" style="fill:#fff"/><path d="M243.61,99h0c-1.49,0-2.7-1.91-2.7-4.28V55.11c0-2.36,1.21-4.28,2.7-4.28s2.69,1.92,2.69,4.28V94.69C246.3,97.06,245.1,99,243.61,99Z" transform="translate(0 -0.57)" style="fill:none;stroke:#fff;stroke-miterlimit:10;stroke-width:2px"/><path d="M243.61,142.39h0c-1.49,0-2.7-1.91-2.7-4.28V98.53c0-2.36,1.21-4.28,2.7-4.28s2.69,1.92,2.69,4.28v39.58c0,2.37-1.2,4.28-2.69,4.28" transform="translate(0 -0.57)" style="fill:#fff"/><path d="M243.61,142.39h0c-1.49,0-2.7-1.91-2.7-4.28V98.53c0-2.36,1.21-4.28,2.7-4.28s2.69,1.92,2.69,4.28v39.58C246.3,140.48,245.1,142.39,243.61,142.39Z" transform="translate(0 -0.57)" style="fill:none;stroke:#fff;stroke-miterlimit:10;stroke-width:2px"/><path d="M243.61,187.93h0c-1.49,0-2.7-1.92-2.7-4.28V144.07c0-2.36,1.21-4.28,2.7-4.28s2.69,1.92,2.69,4.28v39.58c0,2.36-1.2,4.28-2.69,4.28" transform="translate(0 -0.57)" style="fill:#fff"/><path d="M243.61,187.93h0c-1.49,0-2.7-1.92-2.7-4.28V144.07c0-2.36,1.21-4.28,2.7-4.28s2.69,1.92,2.69,4.28v39.58C246.3,186,245.1,187.93,243.61,187.93Z" transform="translate(0 -0.57)" style="fill:none;stroke:#fff;stroke-miterlimit:10;stroke-width:2px"/><path d="M243.61,229.23h0c-1.49,0-2.7-1.91-2.7-4.28V185.37c0-2.36,1.21-4.28,2.7-4.28s2.69,1.92,2.69,4.28V225c0,2.37-1.2,4.28-2.69,4.28" transform="translate(0 -0.57)" style="fill:#fff"/><path d="M243.61,229.23h0c-1.49,0-2.7-1.91-2.7-4.28V185.37c0-2.36,1.21-4.28,2.7-4.28s2.69,1.92,2.69,4.28V225C246.3,227.32,245.1,229.23,243.61,229.23Z" transform="translate(0 -0.57)" style="fill:none;stroke:#fff;stroke-miterlimit:10;stroke-width:2px"/><path d="M248.29,99.86h0c-1.31,6.35-2.95,2-3.66-9.66s-.22-26.29,1.08-32.64,2.95-2,3.66,9.67.22,26.29-1.08,32.63" transform="translate(0 -0.57)" style="fill:#fff"/><path d="M248.29,99.86h0c-1.31,6.35-2.95,2-3.66-9.66s-.22-26.29,1.08-32.64,2.95-2,3.66,9.67S249.59,93.52,248.29,99.86Z" transform="translate(0 -0.57)" style="fill:none;stroke:#fff;stroke-miterlimit:10;stroke-width:2px"/><path d="M251.11,139.88h0c-1.31,6.35-3,2-3.66-9.66s-.23-26.3,1.08-32.64,2.95-2,3.66,9.67.22,26.29-1.08,32.63" transform="translate(0 -0.57)" style="fill:#fff"/><path d="M251.11,139.88h0c-1.31,6.35-3,2-3.66-9.66s-.23-26.3,1.08-32.64,2.95-2,3.66,9.67S252.41,133.54,251.11,139.88Z" transform="translate(0 -0.57)" style="fill:none;stroke:#fff;stroke-miterlimit:10;stroke-width:2px"/><path d="M253.79,178h0c-1.31,6.34-2.94,2-3.65-9.66s-.23-26.3,1.08-32.64,2.94-2,3.66,9.66.22,26.3-1.09,32.64" transform="translate(0 -0.57)" style="fill:#fff"/><path d="M253.79,178h0c-1.31,6.34-2.94,2-3.65-9.66s-.23-26.3,1.08-32.64,2.94-2,3.66,9.66S255.1,171.7,253.79,178Z" transform="translate(0 -0.57)" style="fill:none;stroke:#fff;stroke-miterlimit:10;stroke-width:2px"/><path d="M256.61,218.06h0c-1.31,6.34-2.94,2-3.65-9.67s-.23-26.29,1.08-32.63,2.94-2,3.65,9.66.23,26.3-1.08,32.64" transform="translate(0 -0.57)" style="fill:#fff"/><path d="M256.61,218.06h0c-1.31,6.34-2.94,2-3.65-9.67s-.23-26.29,1.08-32.63,2.94-2,3.65,9.66S257.92,211.72,256.61,218.06Z" transform="translate(0 -0.57)" style="fill:none;stroke:#fff;stroke-miterlimit:10;stroke-width:2px"/><path d="M115.61,507.19h0c-1.49,0-2.69,1.91-2.69,4.27v39.59c0,2.36,1.2,4.27,2.69,4.27s2.7-1.91,2.7-4.27V511.46c0-2.36-1.21-4.27-2.7-4.27" transform="translate(0 -0.57)" style="fill:#fff"/><path d="M115.61,507.19h0c-1.49,0-2.69,1.91-2.69,4.27v39.59c0,2.36,1.2,4.27,2.69,4.27s2.7-1.91,2.7-4.27V511.46C118.31,509.1,117.1,507.19,115.61,507.19Z" transform="translate(0 -0.57)" style="fill:none;stroke:#fff;stroke-miterlimit:10;stroke-width:2px"/><path d="M115.61,461.65h0c-1.49,0-2.69,1.91-2.69,4.28v39.58c0,2.36,1.2,4.28,2.69,4.28s2.7-1.92,2.7-4.28V465.93c0-2.37-1.21-4.28-2.7-4.28" transform="translate(0 -0.57)" style="fill:#fff"/><path d="M115.61,461.65h0c-1.49,0-2.69,1.91-2.69,4.28v39.58c0,2.36,1.2,4.28,2.69,4.28s2.7-1.92,2.7-4.28V465.93C118.31,463.56,117.1,461.65,115.61,461.65Z" transform="translate(0 -0.57)" style="fill:none;stroke:#fff;stroke-miterlimit:10;stroke-width:2px"/><path d="M115.61,418.23h0c-1.49,0-2.69,1.91-2.69,4.28v39.58c0,2.36,1.2,4.28,2.69,4.28s2.7-1.92,2.7-4.28V422.51c0-2.37-1.21-4.28-2.7-4.28" transform="translate(0 -0.57)" style="fill:#fff"/><path d="M115.61,418.23h0c-1.49,0-2.69,1.91-2.69,4.28v39.58c0,2.36,1.2,4.28,2.69,4.28s2.7-1.92,2.7-4.28V422.51C118.31,420.14,117.1,418.23,115.61,418.23Z" transform="translate(0 -0.57)" style="fill:none;stroke:#fff;stroke-miterlimit:10;stroke-width:2px"/><path d="M115.61,372.69h0c-1.49,0-2.69,1.92-2.69,4.28v39.58c0,2.36,1.2,4.28,2.69,4.28s2.7-1.92,2.7-4.28V377c0-2.36-1.21-4.28-2.7-4.28" transform="translate(0 -0.57)" style="fill:#fff"/><path d="M115.61,372.69h0c-1.49,0-2.69,1.92-2.69,4.28v39.58c0,2.36,1.2,4.28,2.69,4.28s2.7-1.92,2.7-4.28V377C118.31,374.61,117.1,372.69,115.61,372.69Z" transform="translate(0 -0.57)" style="fill:none;stroke:#fff;stroke-miterlimit:10;stroke-width:2px"/><path d="M115.61,331.39h0c-1.49,0-2.69,1.91-2.69,4.28v39.58c0,2.36,1.2,4.28,2.69,4.28s2.7-1.92,2.7-4.28V335.67c0-2.37-1.21-4.28-2.7-4.28" transform="translate(0 -0.57)" style="fill:#fff"/><path d="M115.61,331.39h0c-1.49,0-2.69,1.91-2.69,4.28v39.58c0,2.36,1.2,4.28,2.69,4.28s2.7-1.92,2.7-4.28V335.67C118.31,333.3,117.1,331.39,115.61,331.39Z" transform="translate(0 -0.57)" style="fill:none;stroke:#fff;stroke-miterlimit:10;stroke-width:2px"/><path d="M115.61,285.85h0c-1.49,0-2.69,1.92-2.69,4.28v39.58c0,2.36,1.2,4.28,2.69,4.28s2.7-1.92,2.7-4.28V290.13c0-2.36-1.21-4.28-2.7-4.28" transform="translate(0 -0.57)" style="fill:#fff"/><path d="M115.61,285.85h0c-1.49,0-2.69,1.92-2.69,4.28v39.58c0,2.36,1.2,4.28,2.69,4.28s2.7-1.92,2.7-4.28V290.13C118.31,287.77,117.1,285.85,115.61,285.85Z" transform="translate(0 -0.57)" style="fill:none;stroke:#fff;stroke-miterlimit:10;stroke-width:2px"/><path d="M123,509.4h0c-1.31-6.34-2.95-2-3.66,9.67s-.22,26.29,1.09,32.63,2.94,2,3.65-9.66.23-26.3-1.08-32.64" transform="translate(0 -0.57)" style="fill:#fff"/><path d="M123,509.4h0c-1.31-6.34-2.95-2-3.66,9.67s-.22,26.29,1.09,32.63,2.94,2,3.65-9.66S124.27,515.74,123,509.4Z" transform="translate(0 -0.57)" style="fill:none;stroke:#fff;stroke-miterlimit:10;stroke-width:2px"/><path d="M125.78,469.38h0c-1.31-6.34-3-2-3.66,9.67s-.22,26.29,1.08,32.63,3,2,3.66-9.66.23-26.3-1.08-32.64" transform="translate(0 -0.57)" style="fill:#fff"/><path d="M125.78,469.38h0c-1.31-6.34-3-2-3.66,9.67s-.22,26.29,1.08,32.63,3,2,3.66-9.66S127.09,475.72,125.78,469.38Z" transform="translate(0 -0.57)" style="fill:none;stroke:#fff;stroke-miterlimit:10;stroke-width:2px"/><path d="M128.46,431.22h0c-1.3-6.34-2.94-2-3.65,9.67s-.23,26.29,1.08,32.64,3,2,3.66-9.67.22-26.29-1.09-32.64" transform="translate(0 -0.57)" style="fill:#fff"/><path d="M128.46,431.22h0c-1.3-6.34-2.94-2-3.65,9.67s-.23,26.29,1.08,32.64,3,2,3.66-9.67S129.77,437.57,128.46,431.22Z" transform="translate(0 -0.57)" style="fill:none;stroke:#fff;stroke-miterlimit:10;stroke-width:2px"/><path d="M131.28,391.21h0c-1.3-6.35-2.94-2-3.65,9.66s-.23,26.29,1.08,32.64,2.95,2,3.66-9.67.22-26.29-1.09-32.63" transform="translate(0 -0.57)" style="fill:#fff"/><path d="M131.28,391.21h0c-1.3-6.35-2.94-2-3.65,9.66s-.23,26.29,1.08,32.64,2.95,2,3.66-9.67S132.59,397.55,131.28,391.21Z" transform="translate(0 -0.57)" style="fill:none;stroke:#fff;stroke-miterlimit:10;stroke-width:2px"/><path d="M133.84,354.91h0c-1.31-6.34-3-2-3.66,9.66s-.22,26.3,1.09,32.64,2.94,2,3.65-9.66.23-26.3-1.08-32.64" transform="translate(0 -0.57)" style="fill:#fff"/><path d="M133.84,354.91h0c-1.31-6.34-3-2-3.66,9.66s-.22,26.3,1.09,32.64,2.94,2,3.65-9.66S135.15,361.25,133.84,354.91Z" transform="translate(0 -0.57)" style="fill:none;stroke:#fff;stroke-miterlimit:10;stroke-width:2px"/><path d="M136.66,314.89h0c-1.31-6.34-2.95-2-3.66,9.67s-.22,26.29,1.09,32.63,2.94,2,3.65-9.66.23-26.3-1.08-32.64" transform="translate(0 -0.57)" style="fill:#fff"/><path d="M136.66,314.89h0c-1.31-6.34-2.95-2-3.66,9.67s-.22,26.29,1.09,32.63,2.94,2,3.65-9.66S138,321.23,136.66,314.89Z" transform="translate(0 -0.57)" style="fill:none;stroke:#fff;stroke-miterlimit:10;stroke-width:2px"/><path d="M121.94,320.53h0c-1.31-6.34-3-2-3.66,9.67s-.22,26.29,1.08,32.64,3,2,3.66-9.67.22-26.29-1.08-32.64" transform="translate(0 -0.57)" style="fill:#fff"/><path d="M121.94,320.53h0c-1.31-6.34-3-2-3.66,9.67s-.22,26.29,1.08,32.64,3,2,3.66-9.67S123.24,326.88,121.94,320.53Z" transform="translate(0 -0.57)" style="fill:none;stroke:#fff;stroke-miterlimit:10;stroke-width:2px"/><path d="M124.49,284.24h0c-1.31-6.34-2.94-2-3.65,9.66s-.23,26.3,1.08,32.64h0c1.31,6.34,2.94,2,3.66-9.67s.22-26.29-1.09-32.63" transform="translate(0 -0.57)" style="fill:#fff"/><path d="M124.49,284.24h0c-1.31-6.34-2.94-2-3.65,9.66s-.23,26.3,1.08,32.64h0c1.31,6.34,2.94,2,3.66-9.67S125.8,290.58,124.49,284.24Z" transform="translate(0 -0.57)" style="fill:none;stroke:#fff;stroke-miterlimit:10;stroke-width:2px"/><path d="M127.31,244.22h0c-1.31-6.34-2.94-2-3.65,9.66s-.23,26.3,1.08,32.64,2.94,2,3.65-9.66.23-26.3-1.08-32.64" transform="translate(0 -0.57)" style="fill:#fff"/><path d="M127.31,244.22h0c-1.31-6.34-2.94-2-3.65,9.66s-.23,26.3,1.08,32.64,2.94,2,3.65-9.66S128.62,250.56,127.31,244.22Z" transform="translate(0 -0.57)" style="fill:none;stroke:#fff;stroke-miterlimit:10;stroke-width:2px"/><path d="M133.35,244.22h0c-1.3-6.34-2.94-2-3.65,9.66s-.23,26.3,1.08,32.64,2.95,2,3.66-9.66.22-26.3-1.09-32.64" transform="translate(0 -0.57)" style="fill:#fff"/><path d="M133.35,244.22h0c-1.3-6.34-2.94-2-3.65,9.66s-.23,26.3,1.08,32.64,2.95,2,3.66-9.66S134.66,250.56,133.35,244.22Z" transform="translate(0 -0.57)" style="fill:none;stroke:#fff;stroke-miterlimit:10;stroke-width:2px"/><path d="M374.17,53.43h0c-1.49,0-2.69-1.91-2.69-4.27V9.57c0-2.36,1.2-4.27,2.69-4.27s2.7,1.91,2.7,4.27V49.16c0,2.36-1.21,4.27-2.7,4.27" transform="translate(0 -0.57)" style="fill:#fff"/><path d="M374.17,53.43h0c-1.49,0-2.69-1.91-2.69-4.27V9.57c0-2.36,1.2-4.27,2.69-4.27s2.7,1.91,2.7,4.27V49.16C376.87,51.52,375.66,53.43,374.17,53.43Z" transform="translate(0 -0.57)" style="fill:none;stroke:#fff;stroke-miterlimit:10;stroke-width:2px"/><path d="M374.17,99h0c-1.49,0-2.69-1.91-2.69-4.28V55.11c0-2.36,1.2-4.28,2.69-4.28s2.7,1.92,2.7,4.28V94.69c0,2.37-1.21,4.28-2.7,4.28" transform="translate(0 -0.57)" style="fill:#fff"/><path d="M374.17,99h0c-1.49,0-2.69-1.91-2.69-4.28V55.11c0-2.36,1.2-4.28,2.69-4.28s2.7,1.92,2.7,4.28V94.69C376.87,97.06,375.66,99,374.17,99Z" transform="translate(0 -0.57)" style="fill:none;stroke:#fff;stroke-miterlimit:10;stroke-width:2px"/><path d="M374.17,142.39h0c-1.49,0-2.69-1.91-2.69-4.28V98.53c0-2.36,1.2-4.28,2.69-4.28s2.7,1.92,2.7,4.28v39.58c0,2.37-1.21,4.28-2.7,4.28" transform="translate(0 -0.57)" style="fill:#fff"/><path d="M374.17,142.39h0c-1.49,0-2.69-1.91-2.69-4.28V98.53c0-2.36,1.2-4.28,2.69-4.28s2.7,1.92,2.7,4.28v39.58C376.87,140.48,375.66,142.39,374.17,142.39Z" transform="translate(0 -0.57)" style="fill:none;stroke:#fff;stroke-miterlimit:10;stroke-width:2px"/><path d="M374.17,187.93h0c-1.49,0-2.69-1.92-2.69-4.28V144.07c0-2.36,1.2-4.28,2.69-4.28s2.7,1.92,2.7,4.28v39.58c0,2.36-1.21,4.28-2.7,4.28" transform="translate(0 -0.57)" style="fill:#fff"/><path d="M374.17,187.93h0c-1.49,0-2.69-1.92-2.69-4.28V144.07c0-2.36,1.2-4.28,2.69-4.28s2.7,1.92,2.7,4.28v39.58C376.87,186,375.66,187.93,374.17,187.93Z" transform="translate(0 -0.57)" style="fill:none;stroke:#fff;stroke-miterlimit:10;stroke-width:2px"/><path d="M374.17,229.23h0c-1.49,0-2.69-1.91-2.69-4.28V185.37c0-2.36,1.2-4.28,2.69-4.28s2.7,1.92,2.7,4.28V225c0,2.37-1.21,4.28-2.7,4.28" transform="translate(0 -0.57)" style="fill:#fff"/><path d="M374.17,229.23h0c-1.49,0-2.69-1.91-2.69-4.28V185.37c0-2.36,1.2-4.28,2.69-4.28s2.7,1.92,2.7,4.28V225C376.87,227.32,375.66,229.23,374.17,229.23Z" transform="translate(0 -0.57)" style="fill:none;stroke:#fff;stroke-miterlimit:10;stroke-width:2px"/><path d="M374.17,274.77h0c-1.49,0-2.69-1.92-2.69-4.28V230.91c0-2.36,1.2-4.28,2.69-4.28s2.7,1.92,2.7,4.28v39.58c0,2.36-1.21,4.28-2.7,4.28" transform="translate(0 -0.57)" style="fill:#fff"/><path d="M374.17,274.77h0c-1.49,0-2.69-1.92-2.69-4.28V230.91c0-2.36,1.2-4.28,2.69-4.28s2.7,1.92,2.7,4.28v39.58C376.87,272.85,375.66,274.77,374.17,274.77Z" transform="translate(0 -0.57)" style="fill:none;stroke:#fff;stroke-miterlimit:10;stroke-width:2px"/><path d="M378.85,99.86h0c-1.31,6.35-3,2-3.66-9.66s-.22-26.29,1.09-32.64,2.94-2,3.65,9.67.23,26.29-1.08,32.63" transform="translate(0 -0.57)" style="fill:#fff"/><path d="M378.85,99.86h0c-1.31,6.35-3,2-3.66-9.66s-.22-26.29,1.09-32.64,2.94-2,3.65,9.67S380.16,93.52,378.85,99.86Z" transform="translate(0 -0.57)" style="fill:none;stroke:#fff;stroke-miterlimit:10;stroke-width:2px"/><path d="M381.67,139.88h0c-1.31,6.35-2.95,2-3.66-9.66s-.22-26.3,1.08-32.64,3-2,3.66,9.67.23,26.29-1.08,32.63" transform="translate(0 -0.57)" style="fill:#fff"/><path d="M381.67,139.88h0c-1.31,6.35-2.95,2-3.66-9.66s-.22-26.3,1.08-32.64,3-2,3.66,9.67S383,133.54,381.67,139.88Z" transform="translate(0 -0.57)" style="fill:none;stroke:#fff;stroke-miterlimit:10;stroke-width:2px"/><path d="M384.36,178h0c-1.31,6.34-2.95,2-3.66-9.66s-.23-26.3,1.08-32.64,3-2,3.66,9.66.22,26.3-1.08,32.64" transform="translate(0 -0.57)" style="fill:#fff"/><path d="M384.36,178h0c-1.31,6.34-2.95,2-3.66-9.66s-.23-26.3,1.08-32.64,3-2,3.66,9.66S385.66,171.7,384.36,178Z" transform="translate(0 -0.57)" style="fill:none;stroke:#fff;stroke-miterlimit:10;stroke-width:2px"/><path d="M387.17,218.06h0c-1.3,6.34-2.94,2-3.65-9.67s-.23-26.29,1.08-32.63,2.95-2,3.66,9.66.22,26.3-1.09,32.64" transform="translate(0 -0.57)" style="fill:#fff"/><path d="M387.17,218.06h0c-1.3,6.34-2.94,2-3.65-9.67s-.23-26.29,1.08-32.63,2.95-2,3.66,9.66S388.48,211.72,387.17,218.06Z" transform="translate(0 -0.57)" style="fill:none;stroke:#fff;stroke-miterlimit:10;stroke-width:2px"/><path d="M356.62,116.19h0c-1.31,6.34-2.95,2-3.66-9.67s-.22-26.29,1.08-32.64,2.95-2,3.66,9.67.23,26.29-1.08,32.64" transform="translate(0 -0.57)" style="fill:#fff"/><path d="M356.62,116.19h0c-1.31,6.34-2.95,2-3.66-9.67s-.22-26.29,1.08-32.64,2.95-2,3.66,9.67S357.93,109.84,356.62,116.19Z" transform="translate(0 -0.57)" style="fill:none;stroke:#fff;stroke-miterlimit:10;stroke-width:2px"/><path d="M359.31,154.34h0c-1.31,6.35-2.95,2-3.66-9.66s-.23-26.29,1.08-32.64h0c1.31-6.34,2.95-2,3.66,9.67s.22,26.29-1.08,32.63" transform="translate(0 -0.57)" style="fill:#fff"/><path d="M359.31,154.34h0c-1.31,6.35-2.95,2-3.66-9.66s-.23-26.29,1.08-32.64h0c1.31-6.34,2.95-2,3.66,9.67S360.61,148,359.31,154.34Z" transform="translate(0 -0.57)" style="fill:none;stroke:#fff;stroke-miterlimit:10;stroke-width:2px"/><path d="M362.12,194.36h0c-1.3,6.35-2.94,2-3.65-9.66s-.23-26.3,1.08-32.64,2.95-2,3.66,9.67.22,26.29-1.09,32.63" transform="translate(0 -0.57)" style="fill:#fff"/><path d="M362.12,194.36h0c-1.3,6.35-2.94,2-3.65-9.66s-.23-26.3,1.08-32.64,2.95-2,3.66,9.67S363.43,188,362.12,194.36Z" transform="translate(0 -0.57)" style="fill:none;stroke:#fff;stroke-miterlimit:10;stroke-width:2px"/><path d="M405.71,153.51h0c-1.1,8-2.61,1.89-3.39-13.54s-.52-34.37.57-42.32,2.61-1.88,3.39,13.54.52,34.37-.57,42.32" transform="translate(0 -0.57)" style="fill:#fff"/><path d="M405.71,153.51h0c-1.1,8-2.61,1.89-3.39-13.54s-.52-34.37.57-42.32,2.61-1.88,3.39,13.54S406.8,145.56,405.71,153.51Z" transform="translate(0 -0.57)" style="fill:none;stroke:#fff;stroke-miterlimit:10;stroke-width:2px"/><path d="M408.69,203.9h0c-1.09,7.95-2.61,1.88-3.38-13.54s-.53-34.37.57-42.32,2.61-1.89,3.38,13.54.52,34.37-.57,42.32" transform="translate(0 -0.57)" style="fill:#fff"/><path d="M408.69,203.9h0c-1.09,7.95-2.61,1.88-3.38-13.54s-.53-34.37.57-42.32,2.61-1.89,3.38,13.54S409.78,196,408.69,203.9Z" transform="translate(0 -0.57)" style="fill:none;stroke:#fff;stroke-miterlimit:10;stroke-width:2px"/><path d="M411.82,256.74h0c-1.09,7.95-2.61,1.89-3.38-13.54s-.53-34.37.57-42.32,2.61-1.88,3.38,13.54.52,34.38-.57,42.32" transform="translate(0 -0.57)" style="fill:#fff"/><path d="M411.82,256.74h0c-1.09,7.95-2.61,1.89-3.38-13.54s-.53-34.37.57-42.32,2.61-1.88,3.38,13.54S412.91,248.8,411.82,256.74Z" transform="translate(0 -0.57)" style="fill:none;stroke:#fff;stroke-miterlimit:10;stroke-width:2px"/><path d="M420,291.48h0c-1.47,10-3.42,4-4.35-13.49s-.5-39.81,1-49.85,3.42-4,4.35,13.49h0c.93,17.49.5,39.81-1,49.85" transform="translate(0 -0.57)" style="fill:#fff"/><path d="M420,291.48h0c-1.47,10-3.42,4-4.35-13.49s-.5-39.81,1-49.85,3.42-4,4.35,13.49h0C421.86,259.12,421.43,281.44,420,291.48Z" transform="translate(0 -0.57)" style="fill:none;stroke:#fff;stroke-miterlimit:10;stroke-width:2px"/><path d="M374.17,507.19h0c-1.49,0-2.69,1.91-2.69,4.27v39.59c0,2.36,1.2,4.27,2.69,4.27s2.7-1.91,2.7-4.27V511.46c0-2.36-1.21-4.27-2.7-4.27" transform="translate(0 -0.57)" style="fill:#fff"/><path d="M374.17,507.19h0c-1.49,0-2.69,1.91-2.69,4.27v39.59c0,2.36,1.2,4.27,2.69,4.27s2.7-1.91,2.7-4.27V511.46C376.87,509.1,375.66,507.19,374.17,507.19Z" transform="translate(0 -0.57)" style="fill:none;stroke:#fff;stroke-miterlimit:10;stroke-width:2px"/><path d="M374.17,461.65h0c-1.49,0-2.69,1.91-2.69,4.28v39.58c0,2.36,1.2,4.28,2.69,4.28s2.7-1.92,2.7-4.28V465.93c0-2.37-1.21-4.28-2.7-4.28" transform="translate(0 -0.57)" style="fill:#fff"/><path d="M374.17,461.65h0c-1.49,0-2.69,1.91-2.69,4.28v39.58c0,2.36,1.2,4.28,2.69,4.28s2.7-1.92,2.7-4.28V465.93C376.87,463.56,375.66,461.65,374.17,461.65Z" transform="translate(0 -0.57)" style="fill:none;stroke:#fff;stroke-miterlimit:10;stroke-width:2px"/><path d="M406.35,439.07h0c-1.37,0-2.48,1.78-2.48,4V552c0,2.2,1.11,4,2.48,4s2.48-1.78,2.48-4v-109c0-2.2-1.11-4-2.48-4" transform="translate(0 -0.57)" style="fill:#fff"/><path d="M406.35,439.07h0c-1.37,0-2.48,1.78-2.48,4V552c0,2.2,1.11,4,2.48,4s2.48-1.78,2.48-4v-109C408.83,440.85,407.72,439.07,406.35,439.07Z" transform="translate(0 -0.57)" style="fill:none;stroke:#fff;stroke-miterlimit:10;stroke-width:2px"/><path d="M406.35,398.31h0c-1.37,0-2.48,1.78-2.48,4v18.41c0,2.2,1.11,4,2.48,4s2.48-1.78,2.48-4V402.28c0-2.19-1.11-4-2.48-4" transform="translate(0 -0.57)" style="fill:#fff"/><path d="M406.35,398.31h0c-1.37,0-2.48,1.78-2.48,4v18.41c0,2.2,1.11,4,2.48,4s2.48-1.78,2.48-4V402.28C408.83,400.09,407.72,398.31,406.35,398.31Z" transform="translate(0 -0.57)" style="fill:none;stroke:#fff;stroke-miterlimit:10;stroke-width:2px"/><path d="M406.35,374.91h0c-1.37,0-2.48,1.78-2.48,4v18.41c0,2.2,1.11,4,2.48,4s2.48-1.78,2.48-4V378.88c0-2.19-1.11-4-2.48-4" transform="translate(0 -0.57)" style="fill:#fff"/><path d="M406.35,374.91h0c-1.37,0-2.48,1.78-2.48,4v18.41c0,2.2,1.11,4,2.48,4s2.48-1.78,2.48-4V378.88C408.83,376.69,407.72,374.91,406.35,374.91Z" transform="translate(0 -0.57)" style="fill:none;stroke:#fff;stroke-miterlimit:10;stroke-width:2px"/><path d="M406.35,352.62h0c-1.37,0-2.48,1.79-2.48,4V375c0,2.2,1.11,4,2.48,4s2.48-1.78,2.48-4V356.6c0-2.19-1.11-4-2.48-4" transform="translate(0 -0.57)" style="fill:#fff"/><path d="M406.35,352.62h0c-1.37,0-2.48,1.79-2.48,4V375c0,2.2,1.11,4,2.48,4s2.48-1.78,2.48-4V356.6C408.83,354.41,407.72,352.62,406.35,352.62Z" transform="translate(0 -0.57)" style="fill:none;stroke:#fff;stroke-miterlimit:10;stroke-width:2px"/><path d="M374.17,285.85h0c-1.49,0-2.69,1.92-2.69,4.28v39.58c0,2.36,1.2,4.28,2.69,4.28s2.7-1.92,2.7-4.28V290.13c0-2.36-1.21-4.28-2.7-4.28" transform="translate(0 -0.57)" style="fill:#fff"/><path d="M374.17,285.85h0c-1.49,0-2.69,1.92-2.69,4.28v39.58c0,2.36,1.2,4.28,2.69,4.28s2.7-1.92,2.7-4.28V290.13C376.87,287.77,375.66,285.85,374.17,285.85Z" transform="translate(0 -0.57)" style="fill:none;stroke:#fff;stroke-miterlimit:10;stroke-width:2px"/><path d="M381.52,509.4h0c-1.31-6.34-2.95-2-3.66,9.67s-.22,26.29,1.09,32.63,2.94,2,3.65-9.66.23-26.3-1.08-32.64" transform="translate(0 -0.57)" style="fill:#fff"/><path d="M381.52,509.4h0c-1.31-6.34-2.95-2-3.66,9.67s-.22,26.29,1.09,32.63,2.94,2,3.65-9.66S382.83,515.74,381.52,509.4Z" transform="translate(0 -0.57)" style="fill:none;stroke:#fff;stroke-miterlimit:10;stroke-width:2px"/><path d="M384.34,469.38h0c-1.31-6.34-2.95-2-3.66,9.67s-.22,26.29,1.09,32.63,2.94,2,3.65-9.66.23-26.3-1.08-32.64" transform="translate(0 -0.57)" style="fill:#fff"/><path d="M384.34,469.38h0c-1.31-6.34-2.95-2-3.66,9.67s-.22,26.29,1.09,32.63,2.94,2,3.65-9.66S385.65,475.72,384.34,469.38Z" transform="translate(0 -0.57)" style="fill:none;stroke:#fff;stroke-miterlimit:10;stroke-width:2px"/><path d="M387,431.22h0c-1.31-6.34-2.95-2-3.66,9.67s-.23,26.29,1.08,32.64,2.95,2,3.66-9.67.22-26.29-1.08-32.64" transform="translate(0 -0.57)" style="fill:#fff"/><path d="M387,431.22h0c-1.31-6.34-2.95-2-3.66,9.67s-.23,26.29,1.08,32.64,2.95,2,3.66-9.67S388.33,437.57,387,431.22Z" transform="translate(0 -0.57)" style="fill:none;stroke:#fff;stroke-miterlimit:10;stroke-width:2px"/><path d="M389.84,391.21h0c-1.3-6.35-2.94-2-3.65,9.66s-.23,26.29,1.08,32.64,3,2,3.66-9.67.22-26.29-1.09-32.63" transform="translate(0 -0.57)" style="fill:#fff"/><path d="M389.84,391.21h0c-1.3-6.35-2.94-2-3.65,9.66s-.23,26.29,1.08,32.64,3,2,3.66-9.67S391.15,397.55,389.84,391.21Z" transform="translate(0 -0.57)" style="fill:none;stroke:#fff;stroke-miterlimit:10;stroke-width:2px"/><path d="M392.4,354.91h0c-1.31-6.34-2.94-2-3.65,9.66s-.23,26.3,1.08,32.64,2.94,2,3.65-9.66.23-26.3-1.08-32.64" transform="translate(0 -0.57)" style="fill:#fff"/><path d="M392.4,354.91h0c-1.31-6.34-2.94-2-3.65,9.66s-.23,26.3,1.08,32.64,2.94,2,3.65-9.66S393.71,361.25,392.4,354.91Z" transform="translate(0 -0.57)" style="fill:none;stroke:#fff;stroke-miterlimit:10;stroke-width:2px"/><path d="M377.58,363.84h0c-1.87-9.35-4.42-2.36-5.7,15.62h0c-1.27,18-.77,40.14,1.1,49.49s4.43,2.37,5.7-15.62.78-40.14-1.1-49.49" transform="translate(0 -0.57)" style="fill:#fff"/><path d="M377.58,363.84h0c-1.87-9.35-4.42-2.36-5.7,15.62h0c-1.27,18-.77,40.14,1.1,49.49s4.43,2.37,5.7-15.62S379.46,373.19,377.58,363.84Z" transform="translate(0 -0.57)" style="fill:none;stroke:#fff;stroke-miterlimit:10;stroke-width:2px"/><path d="M381.94,308h0c-1.87-9.35-4.43-2.36-5.7,15.62s-.78,40.14,1.1,49.49,4.43,2.36,5.7-15.62.78-40.14-1.1-49.49" transform="translate(0 -0.57)" style="fill:#fff"/><path d="M381.94,308h0c-1.87-9.35-4.43-2.36-5.7,15.62s-.78,40.14,1.1,49.49,4.43,2.36,5.7-15.62S383.82,317.32,381.94,308Z" transform="translate(0 -0.57)" style="fill:none;stroke:#fff;stroke-miterlimit:10;stroke-width:2px"/><path d="M386.75,246.37h0c-1.88-9.35-4.43-2.36-5.7,15.62s-.78,40.14,1.1,49.49,4.42,2.36,5.69-15.62h0c1.28-18,.78-40.14-1.09-49.49" transform="translate(0 -0.57)" style="fill:#fff"/><path d="M386.75,246.37h0c-1.88-9.35-4.43-2.36-5.7,15.62s-.78,40.14,1.1,49.49,4.42,2.36,5.69-15.62h0C389.12,277.88,388.62,255.72,386.75,246.37Z" transform="translate(0 -0.57)" style="fill:none;stroke:#fff;stroke-miterlimit:10;stroke-width:2px"/><path d="M394.74,244.22h0c-1.31-6.34-2.94-2-3.65,9.66s-.23,26.3,1.08,32.64,2.94,2,3.66-9.66.22-26.3-1.09-32.64" transform="translate(0 -0.57)" style="fill:#fff"/><path d="M394.74,244.22h0c-1.31-6.34-2.94-2-3.65,9.66s-.23,26.3,1.08,32.64,2.94,2,3.66-9.66S396.05,250.56,394.74,244.22Z" transform="translate(0 -0.57)" style="fill:none;stroke:#fff;stroke-miterlimit:10;stroke-width:2px"/><path d="M139.59,244.22h0c-1.31-6.34-3-2-3.66,9.66s-.23,26.3,1.08,32.64,3,2,3.66-9.66.22-26.3-1.08-32.64" transform="translate(0 -0.57)" style="fill:#fff"/><path d="M139.59,244.22h0c-1.31-6.34-3-2-3.66,9.66s-.23,26.3,1.08,32.64,3,2,3.66-9.66S140.89,250.56,139.59,244.22Z" transform="translate(0 -0.57)" style="fill:none;stroke:#fff;stroke-miterlimit:10;stroke-width:2px"/><path d="M243.32,274.77h0c-1.49,0-2.69-1.92-2.69-4.28V230.91c0-2.36,1.2-4.28,2.69-4.28s2.7,1.92,2.7,4.28v39.58c0,2.36-1.21,4.28-2.7,4.28" transform="translate(0 -0.57)" style="fill:#fff"/><path d="M243.32,274.77h0c-1.49,0-2.69-1.92-2.69-4.28V230.91c0-2.36,1.2-4.28,2.69-4.28s2.7,1.92,2.7,4.28v39.58C246,272.85,244.81,274.77,243.32,274.77Z" transform="translate(0 -0.57)" style="fill:none;stroke:#fff;stroke-miterlimit:10;stroke-width:2px"/><path d="M243.32,507.19h0c-1.49,0-2.69,1.91-2.69,4.27v39.59c0,2.36,1.2,4.27,2.69,4.27s2.7-1.91,2.7-4.27V511.46c0-2.36-1.21-4.27-2.7-4.27" transform="translate(0 -0.57)" style="fill:#fff"/><path d="M243.32,507.19h0c-1.49,0-2.69,1.91-2.69,4.27v39.59c0,2.36,1.2,4.27,2.69,4.27s2.7-1.91,2.7-4.27V511.46C246,509.1,244.81,507.19,243.32,507.19Z" transform="translate(0 -0.57)" style="fill:none;stroke:#fff;stroke-miterlimit:10;stroke-width:2px"/><path d="M243.32,461.65h0c-1.49,0-2.69,1.91-2.69,4.28v39.58c0,2.36,1.2,4.28,2.69,4.28s2.7-1.92,2.7-4.28V465.93c0-2.37-1.21-4.28-2.7-4.28" transform="translate(0 -0.57)" style="fill:#fff"/><path d="M243.32,461.65h0c-1.49,0-2.69,1.91-2.69,4.28v39.58c0,2.36,1.2,4.28,2.69,4.28s2.7-1.92,2.7-4.28V465.93C246,463.56,244.81,461.65,243.32,461.65Z" transform="translate(0 -0.57)" style="fill:none;stroke:#fff;stroke-miterlimit:10;stroke-width:2px"/><path d="M243.32,418.23h0c-1.49,0-2.69,1.91-2.69,4.28v39.58c0,2.36,1.2,4.28,2.69,4.28s2.7-1.92,2.7-4.28V422.51c0-2.37-1.21-4.28-2.7-4.28" transform="translate(0 -0.57)" style="fill:#fff"/><path d="M243.32,418.23h0c-1.49,0-2.69,1.91-2.69,4.28v39.58c0,2.36,1.2,4.28,2.69,4.28s2.7-1.92,2.7-4.28V422.51C246,420.14,244.81,418.23,243.32,418.23Z" transform="translate(0 -0.57)" style="fill:none;stroke:#fff;stroke-miterlimit:10;stroke-width:2px"/><path d="M243.32,372.69h0c-1.49,0-2.69,1.92-2.69,4.28v39.58c0,2.36,1.2,4.28,2.69,4.28s2.7-1.92,2.7-4.28V377c0-2.36-1.21-4.28-2.7-4.28" transform="translate(0 -0.57)" style="fill:#fff"/><path d="M243.32,372.69h0c-1.49,0-2.69,1.92-2.69,4.28v39.58c0,2.36,1.2,4.28,2.69,4.28s2.7-1.92,2.7-4.28V377C246,374.61,244.81,372.69,243.32,372.69Z" transform="translate(0 -0.57)" style="fill:none;stroke:#fff;stroke-miterlimit:10;stroke-width:2px"/><path d="M243.32,331.39h0c-1.49,0-2.69,1.91-2.69,4.28v39.58c0,2.36,1.2,4.28,2.69,4.28s2.7-1.92,2.7-4.28V335.67c0-2.37-1.21-4.28-2.7-4.28" transform="translate(0 -0.57)" style="fill:#fff"/><path d="M243.32,331.39h0c-1.49,0-2.69,1.91-2.69,4.28v39.58c0,2.36,1.2,4.28,2.69,4.28s2.7-1.92,2.7-4.28V335.67C246,333.3,244.81,331.39,243.32,331.39Z" transform="translate(0 -0.57)" style="fill:none;stroke:#fff;stroke-miterlimit:10;stroke-width:2px"/><path d="M243.32,285.85h0c-1.49,0-2.69,1.92-2.69,4.28v39.58c0,2.36,1.2,4.28,2.69,4.28s2.7-1.92,2.7-4.28V290.13c0-2.36-1.21-4.28-2.7-4.28" transform="translate(0 -0.57)" style="fill:#fff"/><path d="M243.32,285.85h0c-1.49,0-2.69,1.92-2.69,4.28v39.58c0,2.36,1.2,4.28,2.69,4.28s2.7-1.92,2.7-4.28V290.13C246,287.77,244.81,285.85,243.32,285.85Z" transform="translate(0 -0.57)" style="fill:none;stroke:#fff;stroke-miterlimit:10;stroke-width:2px"/><path d="M250.67,509.4h0c-1.31-6.34-2.94-2-3.65,9.67s-.23,26.29,1.08,32.63,2.94,2,3.65-9.66.23-26.3-1.08-32.64" transform="translate(0 -0.57)" style="fill:#fff"/><path d="M250.67,509.4h0c-1.31-6.34-2.94-2-3.65,9.67s-.23,26.29,1.08,32.63,2.94,2,3.65-9.66S252,515.74,250.67,509.4Z" transform="translate(0 -0.57)" style="fill:none;stroke:#fff;stroke-miterlimit:10;stroke-width:2px"/><path d="M253.49,469.38h0c-1.31-6.34-3-2-3.66,9.67s-.22,26.29,1.09,32.63,2.94,2,3.65-9.66.23-26.3-1.08-32.64" transform="translate(0 -0.57)" style="fill:#fff"/><path d="M253.49,469.38h0c-1.31-6.34-3-2-3.66,9.67s-.22,26.29,1.09,32.63,2.94,2,3.65-9.66S254.8,475.72,253.49,469.38Z" transform="translate(0 -0.57)" style="fill:none;stroke:#fff;stroke-miterlimit:10;stroke-width:2px"/><path d="M256.18,431.22h0c-1.31-6.34-3-2-3.66,9.67s-.22,26.29,1.08,32.64,3,2,3.66-9.67.22-26.29-1.08-32.64" transform="translate(0 -0.57)" style="fill:#fff"/><path d="M256.18,431.22h0c-1.31-6.34-3-2-3.66,9.67s-.22,26.29,1.08,32.64,3,2,3.66-9.67S257.48,437.57,256.18,431.22Z" transform="translate(0 -0.57)" style="fill:none;stroke:#fff;stroke-miterlimit:10;stroke-width:2px"/><path d="M259,391.21h0c-1.31-6.35-2.95-2-3.66,9.66s-.23,26.29,1.08,32.64,2.95,2,3.66-9.67.22-26.29-1.08-32.63" transform="translate(0 -0.57)" style="fill:#fff"/><path d="M259,391.21h0c-1.31-6.35-2.95-2-3.66,9.66s-.23,26.29,1.08,32.64,2.95,2,3.66-9.67S260.3,397.55,259,391.21Z" transform="translate(0 -0.57)" style="fill:none;stroke:#fff;stroke-miterlimit:10;stroke-width:2px"/><path d="M261.55,354.91h0c-1.31-6.34-2.94-2-3.65,9.66s-.23,26.3,1.08,32.64,2.94,2,3.65-9.66.23-26.3-1.08-32.64" transform="translate(0 -0.57)" style="fill:#fff"/><path d="M261.55,354.91h0c-1.31-6.34-2.94-2-3.65,9.66s-.23,26.3,1.08,32.64,2.94,2,3.65-9.66S262.86,361.25,261.55,354.91Z" transform="translate(0 -0.57)" style="fill:none;stroke:#fff;stroke-miterlimit:10;stroke-width:2px"/><path d="M264.37,314.89h0c-1.31-6.34-2.95-2-3.66,9.67s-.22,26.29,1.09,32.63,2.94,2,3.65-9.66.23-26.3-1.08-32.64" transform="translate(0 -0.57)" style="fill:#fff"/><path d="M264.37,314.89h0c-1.31-6.34-2.95-2-3.66,9.67s-.22,26.29,1.09,32.63,2.94,2,3.65-9.66S265.68,321.23,264.37,314.89Z" transform="translate(0 -0.57)" style="fill:none;stroke:#fff;stroke-miterlimit:10;stroke-width:2px"/><path d="M249.65,320.53h0c-1.31-6.34-3-2-3.66,9.67s-.22,26.29,1.08,32.64,3,2,3.66-9.67.23-26.29-1.08-32.64" transform="translate(0 -0.57)" style="fill:#fff"/><path d="M249.65,320.53h0c-1.31-6.34-3-2-3.66,9.67s-.22,26.29,1.08,32.64,3,2,3.66-9.67S251,326.88,249.65,320.53Z" transform="translate(0 -0.57)" style="fill:none;stroke:#fff;stroke-miterlimit:10;stroke-width:2px"/><path d="M252.2,284.24h0c-1.3-6.34-2.94-2-3.65,9.66s-.23,26.3,1.08,32.64h0c1.31,6.34,3,2,3.66-9.67s.22-26.29-1.09-32.63" transform="translate(0 -0.57)" style="fill:#fff"/><path d="M252.2,284.24h0c-1.3-6.34-2.94-2-3.65,9.66s-.23,26.3,1.08,32.64h0c1.31,6.34,3,2,3.66-9.67S253.51,290.58,252.2,284.24Z" transform="translate(0 -0.57)" style="fill:none;stroke:#fff;stroke-miterlimit:10;stroke-width:2px"/><path d="M255,244.22h0c-1.31-6.34-2.94-2-3.65,9.66s-.23,26.3,1.08,32.64,2.94,2,3.65-9.66.23-26.3-1.08-32.64" transform="translate(0 -0.57)" style="fill:#fff"/><path d="M255,244.22h0c-1.31-6.34-2.94-2-3.65,9.66s-.23,26.3,1.08,32.64,2.94,2,3.65-9.66S256.33,250.56,255,244.22Z" transform="translate(0 -0.57)" style="fill:none;stroke:#fff;stroke-miterlimit:10;stroke-width:2px"/><path d="M261.07,244.22h0c-1.31-6.34-2.95-2-3.66,9.66s-.22,26.3,1.08,32.64,2.95,2,3.66-9.66.22-26.3-1.08-32.64" transform="translate(0 -0.57)" style="fill:#fff"/><path d="M261.07,244.22h0c-1.31-6.34-2.95-2-3.66,9.66s-.22,26.3,1.08,32.64,2.95,2,3.66-9.66S262.37,250.56,261.07,244.22Z" transform="translate(0 -0.57)" style="fill:none;stroke:#fff;stroke-miterlimit:10;stroke-width:2px"/><path d="M267.3,244.22h0c-1.31-6.34-2.95-2-3.66,9.66s-.22,26.3,1.08,32.64,2.95,2,3.66-9.66.23-26.3-1.08-32.64" transform="translate(0 -0.57)" style="fill:#fff"/><path d="M267.3,244.22h0c-1.31-6.34-2.95-2-3.66,9.66s-.22,26.3,1.08,32.64,2.95,2,3.66-9.66S268.61,250.56,267.3,244.22Z" transform="translate(0 -0.57)" style="fill:none;stroke:#fff;stroke-miterlimit:10;stroke-width:2px"/><path d="M197.36,53.43h0c-1.49,0-2.7-1.91-2.7-4.27V9.57c0-2.36,1.21-4.27,2.7-4.27s2.69,1.91,2.69,4.27V49.16c0,2.36-1.2,4.27-2.69,4.27" transform="translate(0 -0.57)" style="fill:#fff"/><path d="M197.36,53.43h0c-1.49,0-2.7-1.91-2.7-4.27V9.57c0-2.36,1.21-4.27,2.7-4.27s2.69,1.91,2.69,4.27V49.16C200.05,51.52,198.85,53.43,197.36,53.43Z" transform="translate(0 -0.57)" style="fill:none;stroke:#fff;stroke-miterlimit:10;stroke-width:2px"/><path d="M197.36,99h0c-1.49,0-2.7-1.91-2.7-4.28V55.11c0-2.36,1.21-4.28,2.7-4.28s2.69,1.92,2.69,4.28V94.69c0,2.37-1.2,4.28-2.69,4.28" transform="translate(0 -0.57)" style="fill:#fff"/><path d="M197.36,99h0c-1.49,0-2.7-1.91-2.7-4.28V55.11c0-2.36,1.21-4.28,2.7-4.28s2.69,1.92,2.69,4.28V94.69C200.05,97.06,198.85,99,197.36,99Z" transform="translate(0 -0.57)" style="fill:none;stroke:#fff;stroke-miterlimit:10;stroke-width:2px"/><path d="M197.36,142.39h0c-1.49,0-2.7-1.91-2.7-4.28V98.53c0-2.36,1.21-4.28,2.7-4.28s2.69,1.92,2.69,4.28v39.58c0,2.37-1.2,4.28-2.69,4.28" transform="translate(0 -0.57)" style="fill:#fff"/><path d="M197.36,142.39h0c-1.49,0-2.7-1.91-2.7-4.28V98.53c0-2.36,1.21-4.28,2.7-4.28s2.69,1.92,2.69,4.28v39.58C200.05,140.48,198.85,142.39,197.36,142.39Z" transform="translate(0 -0.57)" style="fill:none;stroke:#fff;stroke-miterlimit:10;stroke-width:2px"/><path d="M197.36,187.93h0c-1.49,0-2.7-1.92-2.7-4.28V144.07c0-2.36,1.21-4.28,2.7-4.28s2.69,1.92,2.69,4.28v39.58c0,2.36-1.2,4.28-2.69,4.28" transform="translate(0 -0.57)" style="fill:#fff"/><path d="M197.36,187.93h0c-1.49,0-2.7-1.92-2.7-4.28V144.07c0-2.36,1.21-4.28,2.7-4.28s2.69,1.92,2.69,4.28v39.58C200.05,186,198.85,187.93,197.36,187.93Z" transform="translate(0 -0.57)" style="fill:none;stroke:#fff;stroke-miterlimit:10;stroke-width:2px"/><path d="M197.36,229.23h0c-1.49,0-2.7-1.91-2.7-4.28V185.37c0-2.36,1.21-4.28,2.7-4.28s2.69,1.92,2.69,4.28V225c0,2.37-1.2,4.28-2.69,4.28" transform="translate(0 -0.57)" style="fill:#fff"/><path d="M197.36,229.23h0c-1.49,0-2.7-1.91-2.7-4.28V185.37c0-2.36,1.21-4.28,2.7-4.28s2.69,1.92,2.69,4.28V225C200.05,227.32,198.85,229.23,197.36,229.23Z" transform="translate(0 -0.57)" style="fill:none;stroke:#fff;stroke-miterlimit:10;stroke-width:2px"/><path d="M197.36,274.77h0c-1.49,0-2.7-1.92-2.7-4.28V230.91c0-2.36,1.21-4.28,2.7-4.28s2.69,1.92,2.69,4.28v39.58c0,2.36-1.2,4.28-2.69,4.28" transform="translate(0 -0.57)" style="fill:#fff"/><path d="M197.36,274.77h0c-1.49,0-2.7-1.92-2.7-4.28V230.91c0-2.36,1.21-4.28,2.7-4.28s2.69,1.92,2.69,4.28v39.58C200.05,272.85,198.85,274.77,197.36,274.77Z" transform="translate(0 -0.57)" style="fill:none;stroke:#fff;stroke-miterlimit:10;stroke-width:2px"/><path d="M202,99.86h0c-1.31,6.35-2.95,2-3.66-9.66s-.23-26.29,1.08-32.64,2.95-2,3.66,9.67.22,26.29-1.08,32.63" transform="translate(0 -0.57)" style="fill:#fff"/><path d="M202,99.86h0c-1.31,6.35-2.95,2-3.66-9.66s-.23-26.29,1.08-32.64,2.95-2,3.66,9.67S203.34,93.52,202,99.86Z" transform="translate(0 -0.57)" style="fill:none;stroke:#fff;stroke-miterlimit:10;stroke-width:2px"/><path d="M207.71,99.86h0c-1.31,6.35-2.94,2-3.65-9.66s-.23-26.29,1.08-32.64,2.94-2,3.65,9.67.23,26.29-1.08,32.63" transform="translate(0 -0.57)" style="fill:#fff"/><path d="M207.71,99.86h0c-1.31,6.35-2.94,2-3.65-9.66s-.23-26.29,1.08-32.64,2.94-2,3.65,9.67S209,93.52,207.71,99.86Z" transform="translate(0 -0.57)" style="fill:none;stroke:#fff;stroke-miterlimit:10;stroke-width:2px"/><path d="M213.41,99.67h0c-1.31,6.35-2.95,2-3.66-9.66s-.22-26.3,1.09-32.64,2.94-2,3.65,9.67.23,26.29-1.08,32.63" transform="translate(0 -0.57)" style="fill:#fff"/><path d="M213.41,99.67h0c-1.31,6.35-2.95,2-3.66-9.66s-.22-26.3,1.09-32.64,2.94-2,3.65,9.67S214.72,93.33,213.41,99.67Z" transform="translate(0 -0.57)" style="fill:none;stroke:#fff;stroke-miterlimit:10;stroke-width:2px"/><path d="M216.1,137.83h0c-1.31,6.34-2.95,2-3.66-9.67s-.22-26.29,1.08-32.63,2.95-2,3.66,9.66.23,26.3-1.08,32.64" transform="translate(0 -0.57)" style="fill:#fff"/><path d="M216.1,137.83h0c-1.31,6.34-2.95,2-3.66-9.67s-.22-26.29,1.08-32.63,2.95-2,3.66,9.66S217.41,131.49,216.1,137.83Z" transform="translate(0 -0.57)" style="fill:none;stroke:#fff;stroke-miterlimit:10;stroke-width:2px"/><path d="M218.92,177.85h0c-1.31,6.34-2.95,2-3.66-9.67s-.23-26.29,1.08-32.63,2.95-2,3.66,9.66.22,26.29-1.08,32.64" transform="translate(0 -0.57)" style="fill:#fff"/><path d="M218.92,177.85h0c-1.31,6.34-2.95,2-3.66-9.67s-.23-26.29,1.08-32.63,2.95-2,3.66,9.66S220.22,171.5,218.92,177.85Z" transform="translate(0 -0.57)" style="fill:none;stroke:#fff;stroke-miterlimit:10;stroke-width:2px"/><path d="M197.36,507.19h0c-1.49,0-2.7,1.91-2.7,4.27v39.59c0,2.36,1.21,4.27,2.7,4.27s2.69-1.91,2.69-4.27V511.46c0-2.36-1.2-4.27-2.69-4.27" transform="translate(0 -0.57)" style="fill:#fff"/><path d="M197.36,507.19h0c-1.49,0-2.7,1.91-2.7,4.27v39.59c0,2.36,1.21,4.27,2.7,4.27s2.69-1.91,2.69-4.27V511.46C200.05,509.1,198.85,507.19,197.36,507.19Z" transform="translate(0 -0.57)" style="fill:none;stroke:#fff;stroke-miterlimit:10;stroke-width:2px"/><path d="M197.36,461.65h0c-1.49,0-2.7,1.91-2.7,4.28v39.58c0,2.36,1.21,4.28,2.7,4.28s2.69-1.92,2.69-4.28V465.93c0-2.37-1.2-4.28-2.69-4.28" transform="translate(0 -0.57)" style="fill:#fff"/><path d="M197.36,461.65h0c-1.49,0-2.7,1.91-2.7,4.28v39.58c0,2.36,1.21,4.28,2.7,4.28s2.69-1.92,2.69-4.28V465.93C200.05,463.56,198.85,461.65,197.36,461.65Z" transform="translate(0 -0.57)" style="fill:none;stroke:#fff;stroke-miterlimit:10;stroke-width:2px"/><path d="M197.36,418.23h0c-1.49,0-2.7,1.91-2.7,4.28v39.58c0,2.36,1.21,4.28,2.7,4.28s2.69-1.92,2.69-4.28V422.51c0-2.37-1.2-4.28-2.69-4.28" transform="translate(0 -0.57)" style="fill:#fff"/><path d="M197.36,418.23h0c-1.49,0-2.7,1.91-2.7,4.28v39.58c0,2.36,1.21,4.28,2.7,4.28s2.69-1.92,2.69-4.28V422.51C200.05,420.14,198.85,418.23,197.36,418.23Z" transform="translate(0 -0.57)" style="fill:none;stroke:#fff;stroke-miterlimit:10;stroke-width:2px"/><path d="M197.36,372.69h0c-1.49,0-2.7,1.92-2.7,4.28v39.58c0,2.36,1.21,4.28,2.7,4.28s2.69-1.92,2.69-4.28V377c0-2.36-1.2-4.28-2.69-4.28" transform="translate(0 -0.57)" style="fill:#fff"/><path d="M197.36,372.69h0c-1.49,0-2.7,1.92-2.7,4.28v39.58c0,2.36,1.21,4.28,2.7,4.28s2.69-1.92,2.69-4.28V377C200.05,374.61,198.85,372.69,197.36,372.69Z" transform="translate(0 -0.57)" style="fill:none;stroke:#fff;stroke-miterlimit:10;stroke-width:2px"/><path d="M197.36,331.39h0c-1.49,0-2.7,1.91-2.7,4.28v39.58c0,2.36,1.21,4.28,2.7,4.28s2.69-1.92,2.69-4.28V335.67c0-2.37-1.2-4.28-2.69-4.28" transform="translate(0 -0.57)" style="fill:#fff"/><path d="M197.36,331.39h0c-1.49,0-2.7,1.91-2.7,4.28v39.58c0,2.36,1.21,4.28,2.7,4.28s2.69-1.92,2.69-4.28V335.67C200.05,333.3,198.85,331.39,197.36,331.39Z" transform="translate(0 -0.57)" style="fill:none;stroke:#fff;stroke-miterlimit:10;stroke-width:2px"/><path d="M197.36,285.85h0c-1.49,0-2.7,1.92-2.7,4.28v39.58c0,2.36,1.21,4.28,2.7,4.28s2.69-1.92,2.69-4.28V290.13c0-2.36-1.2-4.28-2.69-4.28" transform="translate(0 -0.57)" style="fill:#fff"/><path d="M197.36,285.85h0c-1.49,0-2.7,1.92-2.7,4.28v39.58c0,2.36,1.21,4.28,2.7,4.28s2.69-1.92,2.69-4.28V290.13C200.05,287.77,198.85,285.85,197.36,285.85Z" transform="translate(0 -0.57)" style="fill:none;stroke:#fff;stroke-miterlimit:10;stroke-width:2px"/><path d="M204.71,509.4h0c-1.31-6.34-3-2-3.66,9.67s-.22,26.29,1.08,32.63,3,2,3.66-9.66.22-26.3-1.08-32.64" transform="translate(0 -0.57)" style="fill:#fff"/><path d="M204.71,509.4h0c-1.31-6.34-3-2-3.66,9.67s-.22,26.29,1.08,32.63,3,2,3.66-9.66S206,515.74,204.71,509.4Z" transform="translate(0 -0.57)" style="fill:none;stroke:#fff;stroke-miterlimit:10;stroke-width:2px"/><path d="M207.52,469.38h0c-1.3-6.34-2.94-2-3.65,9.67s-.23,26.29,1.08,32.63,3,2,3.66-9.66.22-26.3-1.09-32.64" transform="translate(0 -0.57)" style="fill:#fff"/><path d="M207.52,469.38h0c-1.3-6.34-2.94-2-3.65,9.67s-.23,26.29,1.08,32.63,3,2,3.66-9.66S208.83,475.72,207.52,469.38Z" transform="translate(0 -0.57)" style="fill:none;stroke:#fff;stroke-miterlimit:10;stroke-width:2px"/><path d="M210.21,431.22h0c-1.31-6.34-2.94-2-3.65,9.67s-.23,26.29,1.08,32.64,2.94,2,3.66-9.67.22-26.29-1.09-32.64" transform="translate(0 -0.57)" style="fill:#fff"/><path d="M210.21,431.22h0c-1.31-6.34-2.94-2-3.65,9.67s-.23,26.29,1.08,32.64,2.94,2,3.66-9.67S211.52,437.57,210.21,431.22Z" transform="translate(0 -0.57)" style="fill:none;stroke:#fff;stroke-miterlimit:10;stroke-width:2px"/><path d="M213,391.21h0c-1.31-6.35-2.94-2-3.65,9.66s-.23,26.29,1.08,32.64,2.94,2,3.65-9.67.23-26.29-1.08-32.63" transform="translate(0 -0.57)" style="fill:#fff"/><path d="M213,391.21h0c-1.31-6.35-2.94-2-3.65,9.66s-.23,26.29,1.08,32.64,2.94,2,3.65-9.67S214.34,397.55,213,391.21Z" transform="translate(0 -0.57)" style="fill:none;stroke:#fff;stroke-miterlimit:10;stroke-width:2px"/><path d="M215.59,354.91h0c-1.31-6.34-3-2-3.66,9.66s-.22,26.3,1.08,32.64,3,2,3.66-9.66.23-26.3-1.08-32.64" transform="translate(0 -0.57)" style="fill:#fff"/><path d="M215.59,354.91h0c-1.31-6.34-3-2-3.66,9.66s-.22,26.3,1.08,32.64,3,2,3.66-9.66S216.9,361.25,215.59,354.91Z" transform="translate(0 -0.57)" style="fill:none;stroke:#fff;stroke-miterlimit:10;stroke-width:2px"/><path d="M218.41,314.89h0c-1.31-6.34-2.95-2-3.66,9.67s-.23,26.29,1.08,32.63,2.95,2,3.66-9.66.22-26.3-1.08-32.64" transform="translate(0 -0.57)" style="fill:#fff"/><path d="M218.41,314.89h0c-1.31-6.34-2.95-2-3.66,9.67s-.23,26.29,1.08,32.63,2.95,2,3.66-9.66S219.71,321.23,218.41,314.89Z" transform="translate(0 -0.57)" style="fill:none;stroke:#fff;stroke-miterlimit:10;stroke-width:2px"/><path d="M163.77,299.6h0c-1.3-6.34-2.94-2-3.65,9.67s-.23,26.29,1.08,32.63,3,2,3.66-9.66.22-26.3-1.09-32.64" transform="translate(0 -0.57)" style="fill:#fff"/><path d="M163.77,299.6h0c-1.3-6.34-2.94-2-3.65,9.67s-.23,26.29,1.08,32.63,3,2,3.66-9.66S165.08,305.94,163.77,299.6Z" transform="translate(0 -0.57)" style="fill:none;stroke:#fff;stroke-miterlimit:10;stroke-width:2px"/><path d="M169.82,299.6h0c-1.31-6.34-2.95-2-3.66,9.67s-.22,26.29,1.08,32.63,2.95,2,3.66-9.66.23-26.3-1.08-32.64" transform="translate(0 -0.57)" style="fill:#fff"/><path d="M169.82,299.6h0c-1.31-6.34-2.95-2-3.66,9.67s-.22,26.29,1.08,32.63,2.95,2,3.66-9.66S171.13,305.94,169.82,299.6Z" transform="translate(0 -0.57)" style="fill:none;stroke:#fff;stroke-miterlimit:10;stroke-width:2px"/><path d="M176.05,299.6h0c-1.31-6.34-3-2-3.66,9.67s-.22,26.29,1.09,32.63,2.94,2,3.65-9.66.23-26.3-1.08-32.64" transform="translate(0 -0.57)" style="fill:#fff"/><path d="M176.05,299.6h0c-1.31-6.34-3-2-3.66,9.67s-.22,26.29,1.09,32.63,2.94,2,3.65-9.66S177.36,305.94,176.05,299.6Z" transform="translate(0 -0.57)" style="fill:none;stroke:#fff;stroke-miterlimit:10;stroke-width:2px"/><path d="M283.05,72.3h0c-4.66,0-8.44-5.44-8.44-12.15V16.89c0-6.71,3.78-12.15,8.44-12.15s8.45,5.44,8.45,12.15V60.15c0,6.71-3.78,12.15-8.45,12.15" transform="translate(0 -0.57)" style="fill:#fff"/><path d="M283.05,72.3h0c-4.66,0-8.44-5.44-8.44-12.15V16.89c0-6.71,3.78-12.15,8.44-12.15s8.45,5.44,8.45,12.15V60.15C291.5,66.86,287.72,72.3,283.05,72.3Z" transform="translate(0 -0.57)" style="fill:none;stroke:#fff;stroke-miterlimit:10;stroke-width:2px"/><path d="M296,238.87h0c-1.78,0-3.22-2.24-3.22-5V97.55c0-2.77,1.44-5,3.22-5s3.22,2.23,3.22,5V233.87c0,2.76-1.44,5-3.22,5" transform="translate(0 -0.57)" style="fill:#fff"/><path d="M296,238.87h0c-1.78,0-3.22-2.24-3.22-5V97.55c0-2.77,1.44-5,3.22-5s3.22,2.23,3.22,5V233.87C299.25,236.63,297.81,238.87,296,238.87Z" transform="translate(0 -0.57)" style="fill:none;stroke:#fff;stroke-miterlimit:10;stroke-width:2px"/><path d="M300.31,361.92h0c-1.78,0-3.22-2.24-3.22-5V220.59c0-2.76,1.44-5,3.22-5s3.23,2.24,3.23,5V356.92c0,2.76-1.45,5-3.23,5" transform="translate(0 -0.57)" style="fill:#fff"/><path d="M300.31,361.92h0c-1.78,0-3.22-2.24-3.22-5V220.59c0-2.76,1.44-5,3.22-5s3.23,2.24,3.23,5V356.92C303.54,359.68,302.09,361.92,300.31,361.92Z" transform="translate(0 -0.57)" style="fill:none;stroke:#fff;stroke-miterlimit:10;stroke-width:2px"/><path d="M305.43,473.61h0c-1.78,0-3.22-2.24-3.22-5V332.29c0-2.76,1.44-5,3.22-5s3.22,2.24,3.22,5V468.61c0,2.76-1.44,5-3.22,5" transform="translate(0 -0.57)" style="fill:#fff"/><path d="M305.43,473.61h0c-1.78,0-3.22-2.24-3.22-5V332.29c0-2.76,1.44-5,3.22-5s3.22,2.24,3.22,5V468.61C308.65,471.37,307.21,473.61,305.43,473.61Z" transform="translate(0 -0.57)" style="fill:none;stroke:#fff;stroke-miterlimit:10;stroke-width:2px"/><path d="M278.5,454.7h0c-2.15,0-3.89-2.65-3.89-5.92v-92.6c0-3.26,1.74-5.91,3.89-5.91s3.89,2.65,3.89,5.91v92.6c0,3.27-1.74,5.92-3.89,5.92" transform="translate(0 -0.57)" style="fill:#fff"/><path d="M278.5,454.7h0c-2.15,0-3.89-2.65-3.89-5.92v-92.6c0-3.26,1.74-5.91,3.89-5.91s3.89,2.65,3.89,5.91v92.6C282.39,452.05,280.65,454.7,278.5,454.7Z" transform="translate(0 -0.57)" style="fill:none;stroke:#fff;stroke-miterlimit:10;stroke-width:2px"/><path d="M278.5,553.49h0c-2.15,0-3.89-2.65-3.89-5.91V455c0-3.27,1.74-5.92,3.89-5.92s3.89,2.65,3.89,5.92v92.6c0,3.26-1.74,5.91-3.89,5.91" transform="translate(0 -0.57)" style="fill:#fff"/><path d="M278.5,553.49h0c-2.15,0-3.89-2.65-3.89-5.91V455c0-3.27,1.74-5.92,3.89-5.92s3.89,2.65,3.89,5.92v92.6C282.39,550.84,280.65,553.49,278.5,553.49Z" transform="translate(0 -0.57)" style="fill:none;stroke:#fff;stroke-miterlimit:10;stroke-width:2px"/><path d="M290.06,172.11h0c-2.23,0-4.05-2.75-4.05-6.14V73.81c0-3.38,1.82-6.13,4.05-6.13s4.06,2.75,4.06,6.13V166c0,3.39-1.82,6.14-4.06,6.14" transform="translate(0 -0.57)" style="fill:#fff"/><path d="M290.06,172.11h0c-2.23,0-4.05-2.75-4.05-6.14V73.81c0-3.38,1.82-6.13,4.05-6.13s4.06,2.75,4.06,6.13V166C294.12,169.36,292.3,172.11,290.06,172.11Z" transform="translate(0 -0.57)" style="fill:none;stroke:#fff;stroke-miterlimit:10;stroke-width:2px"/><path d="M287.12,454.7h0c-2.15,0-3.89-2.65-3.89-5.92v-92.6c0-3.26,1.74-5.91,3.89-5.91s3.89,2.65,3.89,5.91v92.6c0,3.27-1.74,5.92-3.89,5.92" transform="translate(0 -0.57)" style="fill:#fff"/><path d="M287.12,454.7h0c-2.15,0-3.89-2.65-3.89-5.92v-92.6c0-3.26,1.74-5.91,3.89-5.91s3.89,2.65,3.89,5.91v92.6C291,452.05,289.27,454.7,287.12,454.7Z" transform="translate(0 -0.57)" style="fill:none;stroke:#fff;stroke-miterlimit:10;stroke-width:2px"/><path d="M287.12,553.49h0c-2.15,0-3.89-2.65-3.89-5.91V455c0-3.27,1.74-5.92,3.89-5.92S291,451.71,291,455v92.6c0,3.26-1.74,5.91-3.89,5.91" transform="translate(0 -0.57)" style="fill:#fff"/><path d="M287.12,553.49h0c-2.15,0-3.89-2.65-3.89-5.91V455c0-3.27,1.74-5.92,3.89-5.92S291,451.71,291,455v92.6C291,550.84,289.27,553.49,287.12,553.49Z" transform="translate(0 -0.57)" style="fill:none;stroke:#fff;stroke-miterlimit:10;stroke-width:2px"/><path d="M316.93,120.21h0c-2.15,0-3.89-2.65-3.89-5.92V7.48c0-3.27,1.74-5.91,3.89-5.91s3.89,2.64,3.89,5.91V114.29c0,3.27-1.74,5.92-3.89,5.92" transform="translate(0 -0.57)" style="fill:#fff"/><path d="M316.93,120.21h0c-2.15,0-3.89-2.65-3.89-5.92V7.48c0-3.27,1.74-5.91,3.89-5.91s3.89,2.64,3.89,5.91V114.29C320.82,117.56,319.08,120.21,316.93,120.21Z" transform="translate(0 -0.57)" style="fill:none;stroke:#fff;stroke-miterlimit:10;stroke-width:2px"/><path d="M316.93,227.22h0c-2.15,0-3.89-2.65-3.89-5.91V114.5c0-3.27,1.74-5.92,3.89-5.92s3.89,2.65,3.89,5.92V221.31c0,3.26-1.74,5.91-3.89,5.91" transform="translate(0 -0.57)" style="fill:#fff"/><path d="M316.93,227.22h0c-2.15,0-3.89-2.65-3.89-5.91V114.5c0-3.27,1.74-5.92,3.89-5.92s3.89,2.65,3.89,5.92V221.31C320.82,224.57,319.08,227.22,316.93,227.22Z" transform="translate(0 -0.57)" style="fill:none;stroke:#fff;stroke-miterlimit:10;stroke-width:2px"/><path d="M316.93,339.46h0c-2.15,0-3.89-2.65-3.89-5.92V226.73c0-3.26,1.74-5.91,3.89-5.91s3.89,2.65,3.89,5.91V333.54c0,3.27-1.74,5.92-3.89,5.92" transform="translate(0 -0.57)" style="fill:#fff"/><path d="M316.93,339.46h0c-2.15,0-3.89-2.65-3.89-5.92V226.73c0-3.26,1.74-5.91,3.89-5.91s3.89,2.65,3.89,5.91V333.54C320.82,336.81,319.08,339.46,316.93,339.46Z" transform="translate(0 -0.57)" style="fill:none;stroke:#fff;stroke-miterlimit:10;stroke-width:2px"/><path d="M316.93,441.25h0c-2.15,0-3.89-2.64-3.89-5.91V328.53c0-3.27,1.74-5.92,3.89-5.92s3.89,2.65,3.89,5.92V435.34c0,3.27-1.74,5.91-3.89,5.91" transform="translate(0 -0.57)" style="fill:#fff"/><path d="M316.93,441.25h0c-2.15,0-3.89-2.64-3.89-5.91V328.53c0-3.27,1.74-5.92,3.89-5.92s3.89,2.65,3.89,5.92V435.34C320.82,438.61,319.08,441.25,316.93,441.25Z" transform="translate(0 -0.57)" style="fill:none;stroke:#fff;stroke-miterlimit:10;stroke-width:2px"/><path d="M316.93,553.49h0c-2.15,0-3.89-2.65-3.89-5.91V440.76c0-3.26,1.74-5.91,3.89-5.91s3.89,2.65,3.89,5.91V547.58c0,3.26-1.74,5.91-3.89,5.91" transform="translate(0 -0.57)" style="fill:#fff"/><path d="M316.93,553.49h0c-2.15,0-3.89-2.65-3.89-5.91V440.76c0-3.26,1.74-5.91,3.89-5.91s3.89,2.65,3.89,5.91V547.58C320.82,550.84,319.08,553.49,316.93,553.49Z" transform="translate(0 -0.57)" style="fill:none;stroke:#fff;stroke-miterlimit:10;stroke-width:2px"/><path d="M218.73,274.61c0,24.32-1.44,44-3.22,44s-3.21-19.71-3.21-44,1.44-44,3.21-44,3.22,19.72,3.22,44" transform="translate(0 -0.57)" style="fill:#fff"/><path d="M218.73,274.61c0,24.32-1.44,44-3.22,44s-3.21-19.71-3.21-44,1.44-44,3.21-44S218.73,250.3,218.73,274.61Z" transform="translate(0 -0.57)" style="fill:none;stroke:#fff;stroke-miterlimit:10;stroke-width:2px"/><path d="M225.2,274.61c0,24.32-1.44,44-3.22,44s-3.21-19.71-3.21-44,1.44-44,3.21-44,3.22,19.72,3.22,44" transform="translate(0 -0.57)" style="fill:#fff"/><path d="M225.2,274.61c0,24.32-1.44,44-3.22,44s-3.21-19.71-3.21-44,1.44-44,3.21-44S225.2,250.3,225.2,274.61Z" transform="translate(0 -0.57)" style="fill:none;stroke:#fff;stroke-miterlimit:10;stroke-width:2px"/><path d="M231.87,274.61c0,24.32-1.44,44-3.22,44s-3.21-19.71-3.21-44,1.44-44,3.21-44,3.22,19.72,3.22,44" transform="translate(0 -0.57)" style="fill:#fff"/><path d="M231.87,274.61c0,24.32-1.44,44-3.22,44s-3.21-19.71-3.21-44,1.44-44,3.21-44S231.87,250.3,231.87,274.61Z" transform="translate(0 -0.57)" style="fill:none;stroke:#fff;stroke-miterlimit:10;stroke-width:2px"/><path d="M231.87,353.52c0,24.32-1.44,44-3.22,44s-3.21-19.71-3.21-44,1.44-44,3.21-44,3.22,19.72,3.22,44" transform="translate(0 -0.57)" style="fill:#fff"/><path d="M231.87,353.52c0,24.32-1.44,44-3.22,44s-3.21-19.71-3.21-44,1.44-44,3.21-44S231.87,329.21,231.87,353.52Z" transform="translate(0 -0.57)" style="fill:none;stroke:#fff;stroke-miterlimit:10;stroke-width:2px"/><path d="M231.87,474.52c0,43.55-1.44,78.86-3.22,78.86s-3.21-35.31-3.21-78.86,1.44-78.87,3.21-78.87,3.22,35.31,3.22,78.87" transform="translate(0 -0.57)" style="fill:#fff"/><path d="M231.87,474.52c0,43.55-1.44,78.86-3.22,78.86s-3.21-35.31-3.21-78.86,1.44-78.87,3.21-78.87S231.87,431,231.87,474.52Z" transform="translate(0 -0.57)" style="fill:none;stroke:#fff;stroke-miterlimit:10;stroke-width:2px"/><path d="M336.45,53.43h0c-1.49,0-2.7-1.91-2.7-4.27V9.57c0-2.36,1.21-4.27,2.7-4.27s2.69,1.91,2.69,4.27V49.16c0,2.36-1.2,4.27-2.69,4.27" transform="translate(0 -0.57)" style="fill:#fff"/><path d="M336.45,53.43h0c-1.49,0-2.7-1.91-2.7-4.27V9.57c0-2.36,1.21-4.27,2.7-4.27s2.69,1.91,2.69,4.27V49.16C339.14,51.52,337.94,53.43,336.45,53.43Z" transform="translate(0 -0.57)" style="fill:none;stroke:#fff;stroke-miterlimit:10;stroke-width:2px"/><path d="M336.45,99h0c-1.49,0-2.7-1.91-2.7-4.28V55.11c0-2.36,1.21-4.28,2.7-4.28s2.69,1.92,2.69,4.28V94.69c0,2.37-1.2,4.28-2.69,4.28" transform="translate(0 -0.57)" style="fill:#fff"/><path d="M336.45,99h0c-1.49,0-2.7-1.91-2.7-4.28V55.11c0-2.36,1.21-4.28,2.7-4.28s2.69,1.92,2.69,4.28V94.69C339.14,97.06,337.94,99,336.45,99Z" transform="translate(0 -0.57)" style="fill:none;stroke:#fff;stroke-miterlimit:10;stroke-width:2px"/><path d="M336.45,142.39h0c-1.49,0-2.7-1.91-2.7-4.28V98.53c0-2.36,1.21-4.28,2.7-4.28s2.69,1.92,2.69,4.28v39.58c0,2.37-1.2,4.28-2.69,4.28" transform="translate(0 -0.57)" style="fill:#fff"/><path d="M336.45,142.39h0c-1.49,0-2.7-1.91-2.7-4.28V98.53c0-2.36,1.21-4.28,2.7-4.28s2.69,1.92,2.69,4.28v39.58C339.14,140.48,337.94,142.39,336.45,142.39Z" transform="translate(0 -0.57)" style="fill:none;stroke:#fff;stroke-miterlimit:10;stroke-width:2px"/><path d="M338.79,419h0c-2.78,0-5-3.35-5-7.48V154.79c0-4.13,2.26-7.48,5-7.48s5,3.35,5,7.48V411.47c0,4.13-2.26,7.48-5,7.48" transform="translate(0 -0.57)" style="fill:#fff"/><path d="M338.79,419h0c-2.78,0-5-3.35-5-7.48V154.79c0-4.13,2.26-7.48,5-7.48s5,3.35,5,7.48V411.47C343.83,415.6,341.57,419,338.79,419Z" transform="translate(0 -0.57)" style="fill:none;stroke:#fff;stroke-miterlimit:10;stroke-width:2px"/><path d="M341.12,99.86h0c-1.3,6.35-2.94,2-3.65-9.66s-.23-26.29,1.08-32.64,2.95-2,3.66,9.67.22,26.29-1.09,32.63" transform="translate(0 -0.57)" style="fill:#fff"/><path d="M341.12,99.86h0c-1.3,6.35-2.94,2-3.65-9.66s-.23-26.29,1.08-32.64,2.95-2,3.66,9.67S342.43,93.52,341.12,99.86Z" transform="translate(0 -0.57)" style="fill:none;stroke:#fff;stroke-miterlimit:10;stroke-width:2px"/><path d="M342.29,66.86h0c-1.77,8.77-4.14,2.61-5.3-13.76s-.66-36.74,1.11-45.51,4.14-2.6,5.3,13.76.66,36.75-1.11,45.51" transform="translate(0 -0.57)" style="fill:#fff"/><path d="M342.29,66.86h0c-1.77,8.77-4.14,2.61-5.3-13.76s-.66-36.74,1.11-45.51,4.14-2.6,5.3,13.76S344.06,58.1,342.29,66.86Z" transform="translate(0 -0.57)" style="fill:none;stroke:#fff;stroke-miterlimit:10;stroke-width:2px"/><path d="M351.2,96.08h0c-2.86,12.38-6.17,2.61-7.4-21.82S343.89,20,346.75,7.6s6.16-2.61,7.39,21.82-.09,54.27-2.94,66.66" transform="translate(0 -0.57)" style="fill:#fff"/><path d="M351.2,96.08h0c-2.86,12.38-6.17,2.61-7.4-21.82S343.89,20,346.75,7.6s6.16-2.61,7.39,21.82S354.05,83.69,351.2,96.08Z" transform="translate(0 -0.57)" style="fill:none;stroke:#fff;stroke-miterlimit:10;stroke-width:2px"/><path d="M356.62,440.47h0c-1.31-6.34-2.95-2-3.66,9.67s-.22,26.29,1.08,32.63,2.95,2,3.66-9.66.23-26.29-1.08-32.64" transform="translate(0 -0.57)" style="fill:#fff"/><path d="M356.62,440.47h0c-1.31-6.34-2.95-2-3.66,9.67s-.22,26.29,1.08,32.63,2.95,2,3.66-9.66S357.93,446.82,356.62,440.47Z" transform="translate(0 -0.57)" style="fill:none;stroke:#fff;stroke-miterlimit:10;stroke-width:2px"/><path d="M359.31,402.32h0c-1.31-6.35-2.95-2-3.66,9.66s-.23,26.29,1.08,32.64,2.95,2,3.66-9.67.22-26.29-1.08-32.63" transform="translate(0 -0.57)" style="fill:#fff"/><path d="M359.31,402.32h0c-1.31-6.35-2.95-2-3.66,9.66s-.23,26.29,1.08,32.64,2.95,2,3.66-9.67S360.61,408.66,359.31,402.32Z" transform="translate(0 -0.57)" style="fill:none;stroke:#fff;stroke-miterlimit:10;stroke-width:2px"/><path d="M362.12,362.3h0c-1.3-6.35-2.94-2-3.65,9.66s-.23,26.3,1.08,32.64,2.95,2,3.66-9.67.22-26.29-1.09-32.63" transform="translate(0 -0.57)" style="fill:#fff"/><path d="M362.12,362.3h0c-1.3-6.35-2.94-2-3.65,9.66s-.23,26.3,1.08,32.64,2.95,2,3.66-9.67S363.43,368.64,362.12,362.3Z" transform="translate(0 -0.57)" style="fill:none;stroke:#fff;stroke-miterlimit:10;stroke-width:2px"/><path d="M351.2,460.58h0c-2.86-12.38-6.17-2.61-7.4,21.82s.09,54.28,2.95,66.66,6.16,2.61,7.39-21.82-.09-54.27-2.94-66.66" transform="translate(0 -0.57)" style="fill:#fff"/><path d="M351.2,460.58h0c-2.86-12.38-6.17-2.61-7.4,21.82s.09,54.28,2.95,66.66,6.16,2.61,7.39-21.82S354.05,473,351.2,460.58Z" transform="translate(0 -0.57)" style="fill:none;stroke:#fff;stroke-miterlimit:10;stroke-width:2px"/><path d="M336.45,507.19h0c-1.49,0-2.7,1.91-2.7,4.27v39.59c0,2.36,1.21,4.27,2.7,4.27s2.69-1.91,2.69-4.27V511.46c0-2.36-1.2-4.27-2.69-4.27" transform="translate(0 -0.57)" style="fill:#fff"/><path d="M336.45,507.19h0c-1.49,0-2.7,1.91-2.7,4.27v39.59c0,2.36,1.21,4.27,2.7,4.27s2.69-1.91,2.69-4.27V511.46C339.14,509.1,337.94,507.19,336.45,507.19Z" transform="translate(0 -0.57)" style="fill:none;stroke:#fff;stroke-miterlimit:10;stroke-width:2px"/><path d="M336.45,461.65h0c-1.49,0-2.7,1.91-2.7,4.28v39.58c0,2.36,1.21,4.28,2.7,4.28s2.69-1.92,2.69-4.28V465.93c0-2.37-1.2-4.28-2.69-4.28" transform="translate(0 -0.57)" style="fill:#fff"/><path d="M336.45,461.65h0c-1.49,0-2.7,1.91-2.7,4.28v39.58c0,2.36,1.21,4.28,2.7,4.28s2.69-1.92,2.69-4.28V465.93C339.14,463.56,337.94,461.65,336.45,461.65Z" transform="translate(0 -0.57)" style="fill:none;stroke:#fff;stroke-miterlimit:10;stroke-width:2px"/><path d="M336.45,418.23h0c-1.49,0-2.7,1.91-2.7,4.28v39.58c0,2.36,1.21,4.28,2.7,4.28s2.69-1.92,2.69-4.28V422.51c0-2.37-1.2-4.28-2.69-4.28" transform="translate(0 -0.57)" style="fill:#fff"/><path d="M336.45,418.23h0c-1.49,0-2.7,1.91-2.7,4.28v39.58c0,2.36,1.21,4.28,2.7,4.28s2.69-1.92,2.69-4.28V422.51C339.14,420.14,337.94,418.23,336.45,418.23Z" transform="translate(0 -0.57)" style="fill:none;stroke:#fff;stroke-miterlimit:10;stroke-width:2px"/><path d="M336.45,372.69h0c-1.49,0-2.7,1.92-2.7,4.28v39.58c0,2.36,1.21,4.28,2.7,4.28s2.69-1.92,2.69-4.28V377c0-2.36-1.2-4.28-2.69-4.28" transform="translate(0 -0.57)" style="fill:#fff"/><path d="M336.45,372.69h0c-1.49,0-2.7,1.92-2.7,4.28v39.58c0,2.36,1.21,4.28,2.7,4.28s2.69-1.92,2.69-4.28V377C339.14,374.61,337.94,372.69,336.45,372.69Z" transform="translate(0 -0.57)" style="fill:none;stroke:#fff;stroke-miterlimit:10;stroke-width:2px"/><path d="M423.11,116.19h0c-.92,6.34-2.07,2-2.57-9.67s-.16-26.29.76-32.64,2.07-2,2.57,9.67.16,26.29-.76,32.64" transform="translate(0 -0.57)" style="fill:#fff"/><path d="M423.11,116.19h0c-.92,6.34-2.07,2-2.57-9.67s-.16-26.29.76-32.64,2.07-2,2.57,9.67S424,109.84,423.11,116.19Z" transform="translate(0 -0.57)" style="fill:none;stroke:#fff;stroke-miterlimit:10;stroke-width:2px"/><path d="M425.11,154.34h0c-.92,6.35-2.07,2-2.57-9.66s-.16-26.29.76-32.64h0c.92-6.34,2.07-2,2.57,9.67s.16,26.29-.76,32.63" transform="translate(0 -0.57)" style="fill:#fff"/><path d="M425.11,154.34h0c-.92,6.35-2.07,2-2.57-9.66s-.16-26.29.76-32.64h0c.92-6.34,2.07-2,2.57,9.67S426,148,425.11,154.34Z" transform="translate(0 -0.57)" style="fill:none;stroke:#fff;stroke-miterlimit:10;stroke-width:2px"/><path d="M427.2,194.36h0c-.92,6.35-2.07,2-2.57-9.66s-.16-26.3.76-32.64,2.07-2,2.57,9.67.16,26.29-.76,32.63" transform="translate(0 -0.57)" style="fill:#fff"/><path d="M427.2,194.36h0c-.92,6.35-2.07,2-2.57-9.66s-.16-26.3.76-32.64,2.07-2,2.57,9.67S428.12,188,427.2,194.36Z" transform="translate(0 -0.57)" style="fill:none;stroke:#fff;stroke-miterlimit:10;stroke-width:2px"/><path d="M405.11,53.43h0c-1.05,0-1.9-1.42-1.9-3.18V8.47c0-1.75.85-3.17,1.9-3.17S407,6.72,407,8.47V50.25c0,1.76-.84,3.18-1.89,3.18" transform="translate(0 -0.57)" style="fill:#fff"/><path d="M405.11,53.43h0c-1.05,0-1.9-1.42-1.9-3.18V8.47c0-1.75.85-3.17,1.9-3.17S407,6.72,407,8.47V50.25C407,52,406.16,53.43,405.11,53.43Z" transform="translate(0 -0.57)" style="fill:none;stroke:#fff;stroke-miterlimit:10;stroke-width:2px"/><path d="M405.11,99h0c-1.05,0-1.9-1.42-1.9-3.18V54c0-1.75.85-3.18,1.9-3.18S407,52.26,407,54V95.79c0,1.76-.84,3.18-1.89,3.18" transform="translate(0 -0.57)" style="fill:#fff"/><path d="M405.11,99h0c-1.05,0-1.9-1.42-1.9-3.18V54c0-1.75.85-3.18,1.9-3.18S407,52.26,407,54V95.79C407,97.55,406.16,99,405.11,99Z" transform="translate(0 -0.57)" style="fill:none;stroke:#fff;stroke-miterlimit:10;stroke-width:2px"/><path d="M409.39,66.86h0c-1.26,8.77-3,2.61-3.78-13.76s-.48-36.74.79-45.51,3-2.6,3.79,13.76.47,36.75-.8,45.51" transform="translate(0 -0.57)" style="fill:#fff"/><path d="M409.39,66.86h0c-1.26,8.77-3,2.61-3.78-13.76s-.48-36.74.79-45.51,3-2.6,3.79,13.76S410.66,58.1,409.39,66.86Z" transform="translate(0 -0.57)" style="fill:none;stroke:#fff;stroke-miterlimit:10;stroke-width:2px"/><path d="M416,96.08h0c-2.06,12.38-4.46,2.61-5.35-21.82S410.74,20,412.81,7.6s4.46-2.61,5.35,21.82S418.1,83.69,416,96.08" transform="translate(0 -0.57)" style="fill:#fff"/><path d="M416,96.08h0c-2.06,12.38-4.46,2.61-5.35-21.82S410.74,20,412.81,7.6s4.46-2.61,5.35,21.82S418.1,83.69,416,96.08Z" transform="translate(0 -0.57)" style="fill:none;stroke:#fff;stroke-miterlimit:10;stroke-width:2px"/><path d="M425.73,440.47h0c-.92-6.34-2.07-2-2.57,9.67s-.15,26.29.77,32.63,2.07,2,2.56-9.66.16-26.29-.76-32.64" transform="translate(0 -0.57)" style="fill:#fff"/><path d="M425.73,440.47h0c-.92-6.34-2.07-2-2.57,9.67s-.15,26.29.77,32.63,2.07,2,2.56-9.66S426.65,446.82,425.73,440.47Z" transform="translate(0 -0.57)" style="fill:none;stroke:#fff;stroke-miterlimit:10;stroke-width:2px"/><path d="M428.6,362.15h0c-1.84-11.8-4.2-3.63-5.28,18.24s-.47,49.15,1.36,60.95,4.2,3.63,5.29-18.24.47-49.16-1.37-61" transform="translate(0 -0.57)" style="fill:#fff"/><path d="M428.6,362.15h0c-1.84-11.8-4.2-3.63-5.28,18.24s-.47,49.15,1.36,60.95,4.2,3.63,5.29-18.24S430.44,373.94,428.6,362.15Z" transform="translate(0 -0.57)" style="fill:none;stroke:#fff;stroke-miterlimit:10;stroke-width:2px"/><path d="M428.5,287.36h0c-1.83-11.8-4.2-3.63-5.28,18.24s-.47,49.15,1.37,60.95,4.2,3.63,5.28-18.24.47-49.16-1.37-60.95" transform="translate(0 -0.57)" style="fill:#fff"/><path d="M428.5,287.36h0c-1.83-11.8-4.2-3.63-5.28,18.24s-.47,49.15,1.37,60.95,4.2,3.63,5.28-18.24S430.34,299.15,428.5,287.36Z" transform="translate(0 -0.57)" style="fill:none;stroke:#fff;stroke-miterlimit:10;stroke-width:2px"/><path d="M421,440h0c-2.64-15.05-5.7-3.18-6.84,26.52s.08,66,2.72,81,5.7,3.18,6.84-26.52-.08-66-2.72-81" transform="translate(0 -0.57)" style="fill:#fff"/><path d="M421,440h0c-2.64-15.05-5.7-3.18-6.84,26.52s.08,66,2.72,81,5.7,3.18,6.84-26.52S423.67,455.06,421,440Z" transform="translate(0 -0.57)" style="fill:none;stroke:#fff;stroke-miterlimit:10;stroke-width:2px"/></g></g></g></g></g></svg>