<svg xmlns="http://www.w3.org/2000/svg" xmlns:xlink="http://www.w3.org/1999/xlink" viewBox="0 0 512 512"><defs><clipPath id="a"><rect x="192.5" y="41.9" width="127" height="428.21" style="fill:none"/></clipPath></defs><title>Tavola disegno 1</title><rect width="512" height="512"/><g style="clip-path:url(#a)"><path d="M211.27,80h0c-9.93,0-18-1.85-18-4.14V46.81c0-2.28,8.06-4.13,18-4.13s18,1.85,18,4.13V75.88c0,2.29-8.06,4.14-18,4.14" style="fill:#fff"/><path d="M211.27,80h0c-9.93,0-18-1.85-18-4.14V46.81c0-2.28,8.06-4.13,18-4.13s18,1.85,18,4.13V75.88C229.26,78.17,221.2,80,211.27,80Z" style="fill:none;stroke:#fff;stroke-miterlimit:10;stroke-width:1.5637409687042236px"/><path d="M211.27,115.34h0c-9.93,0-18-1.85-18-4.13V82.13c0-2.28,8.06-4.13,18-4.13s18,1.85,18,4.13v29.08c0,2.28-8.06,4.13-18,4.13" style="fill:#fff"/><path d="M211.27,115.34h0c-9.93,0-18-1.85-18-4.13V82.13c0-2.28,8.06-4.13,18-4.13s18,1.85,18,4.13v29.08C229.26,113.49,221.2,115.34,211.27,115.34Z" style="fill:none;stroke:#fff;stroke-miterlimit:10;stroke-width:1.5637409687042236px"/><path d="M211.27,149h0c-9.93,0-18-1.85-18-4.13V115.81c0-2.28,8.06-4.13,18-4.13s18,1.85,18,4.13v29.08c0,2.28-8.06,4.13-18,4.13" style="fill:#fff"/><path d="M211.27,149h0c-9.93,0-18-1.85-18-4.13V115.81c0-2.28,8.06-4.13,18-4.13s18,1.85,18,4.13v29.08C229.26,147.17,221.2,149,211.27,149Z" style="fill:none;stroke:#fff;stroke-miterlimit:10;stroke-width:1.5637409687042236px"/><path d="M211.27,184.34h0c-9.93,0-18-1.85-18-4.13V151.14c0-2.29,8.06-4.14,18-4.14s18,1.85,18,4.14v29.07c0,2.28-8.06,4.13-18,4.13" style="fill:#fff"/><path d="M211.27,184.34h0c-9.93,0-18-1.85-18-4.13V151.14c0-2.29,8.06-4.14,18-4.14s18,1.85,18,4.14v29.07C229.26,182.49,221.2,184.34,211.27,184.34Z" style="fill:none;stroke:#fff;stroke-miterlimit:10;stroke-width:1.5637409687042236px"/><path d="M211.27,216.38h0c-9.93,0-18-1.85-18-4.13V183.17c0-2.28,8.06-4.13,18-4.13s18,1.85,18,4.13v29.08c0,2.28-8.06,4.13-18,4.13" style="fill:#fff"/><path d="M211.27,216.38h0c-9.93,0-18-1.85-18-4.13V183.17c0-2.28,8.06-4.13,18-4.13s18,1.85,18,4.13v29.08C229.26,214.53,221.2,216.38,211.27,216.38Z" style="fill:none;stroke:#fff;stroke-miterlimit:10;stroke-width:1.5637409687042236px"/><path d="M211.27,251.7h0c-9.93,0-18-1.85-18-4.13V218.5c0-2.29,8.06-4.14,18-4.14s18,1.85,18,4.14v29.07c0,2.28-8.06,4.13-18,4.13" style="fill:#fff"/><path d="M211.27,251.7h0c-9.93,0-18-1.85-18-4.13V218.5c0-2.29,8.06-4.14,18-4.14s18,1.85,18,4.14v29.07C229.26,249.85,221.2,251.7,211.27,251.7Z" style="fill:none;stroke:#fff;stroke-miterlimit:10;stroke-width:1.5637409687042236px"/><path d="M237.6,123.51h0a17.66,17.66,0,0,1-24.39-7.5,19,19,0,0,1,7.23-25.31,17.65,17.65,0,0,1,24.39,7.49h0a19,19,0,0,1-7.23,25.31" style="fill:#fff"/><path d="M237.6,123.51h0a17.66,17.66,0,0,1-24.39-7.5,19,19,0,0,1,7.23-25.31,17.65,17.65,0,0,1,24.39,7.49h0A19,19,0,0,1,237.6,123.51Z" style="fill:none;stroke:#fff;stroke-miterlimit:10;stroke-width:1.5637409687042236px"/><path d="M252.36,154.55h0a17.65,17.65,0,0,1-24.39-7.5,19,19,0,0,1,7.22-25.31,17.66,17.66,0,0,1,24.39,7.5,19,19,0,0,1-7.22,25.31" style="fill:#fff"/><path d="M252.36,154.55h0a17.65,17.65,0,0,1-24.39-7.5,19,19,0,0,1,7.22-25.31,17.66,17.66,0,0,1,24.39,7.5A19,19,0,0,1,252.36,154.55Z" style="fill:none;stroke:#fff;stroke-miterlimit:10;stroke-width:1.5637409687042236px"/><path d="M266.42,184.15h0a17.66,17.66,0,0,1-24.39-7.5,19,19,0,0,1,7.23-25.31,17.65,17.65,0,0,1,24.39,7.49,19,19,0,0,1-7.23,25.32" style="fill:#fff"/><path d="M266.42,184.15h0a17.66,17.66,0,0,1-24.39-7.5,19,19,0,0,1,7.23-25.31,17.65,17.65,0,0,1,24.39,7.49A19,19,0,0,1,266.42,184.15Z" style="fill:none;stroke:#fff;stroke-miterlimit:10;stroke-width:1.5637409687042236px"/><path d="M281.18,215.19h0a17.66,17.66,0,0,1-24.39-7.5A19,19,0,0,1,264,182.38a17.65,17.65,0,0,1,24.39,7.5h0a19,19,0,0,1-7.22,25.31" style="fill:#fff"/><path d="M281.18,215.19h0a17.66,17.66,0,0,1-24.39-7.5A19,19,0,0,1,264,182.38a17.65,17.65,0,0,1,24.39,7.5h0A19,19,0,0,1,281.18,215.19Z" style="fill:none;stroke:#fff;stroke-miterlimit:10;stroke-width:1.5637409687042236px"/><path d="M294.56,243.34h0a17.65,17.65,0,0,1-24.39-7.49,19,19,0,0,1,7.22-25.32,17.66,17.66,0,0,1,24.39,7.5h0a19,19,0,0,1-7.22,25.31" style="fill:#fff"/><path d="M294.56,243.34h0a17.65,17.65,0,0,1-24.39-7.49,19,19,0,0,1,7.22-25.32,17.66,17.66,0,0,1,24.39,7.5h0A19,19,0,0,1,294.56,243.34Z" style="fill:none;stroke:#fff;stroke-miterlimit:10;stroke-width:1.5637409687042236px"/><path d="M309.31,274.39h0a17.66,17.66,0,0,1-24.39-7.5,19,19,0,0,1,7.22-25.32,17.66,17.66,0,0,1,24.39,7.5,19,19,0,0,1-7.22,25.32" style="fill:#fff"/><path d="M309.31,274.39h0a17.66,17.66,0,0,1-24.39-7.5,19,19,0,0,1,7.22-25.32,17.66,17.66,0,0,1,24.39,7.5A19,19,0,0,1,309.31,274.39Z" style="fill:none;stroke:#fff;stroke-miterlimit:10;stroke-width:1.5637409687042236px"/><path d="M211.27,432h0c-9.93,0-18,1.85-18,4.14v29.07c0,2.28,8.06,4.13,18,4.13s18-1.85,18-4.13V436.12c0-2.29-8.06-4.14-18-4.14" style="fill:#fff"/><path d="M211.27,432h0c-9.93,0-18,1.85-18,4.14v29.07c0,2.28,8.06,4.13,18,4.13s18-1.85,18-4.13V436.12C229.26,433.83,221.2,432,211.27,432Z" style="fill:none;stroke:#fff;stroke-miterlimit:10;stroke-width:1.5637409687042236px"/><path d="M211.27,396.66h0c-9.93,0-18,1.85-18,4.13v29.08c0,2.28,8.06,4.13,18,4.13s18-1.85,18-4.13V400.79c0-2.28-8.06-4.13-18-4.13" style="fill:#fff"/><path d="M211.27,396.66h0c-9.93,0-18,1.85-18,4.13v29.08c0,2.28,8.06,4.13,18,4.13s18-1.85,18-4.13V400.79C229.26,398.51,221.2,396.66,211.27,396.66Z" style="fill:none;stroke:#fff;stroke-miterlimit:10;stroke-width:1.5637409687042236px"/><path d="M211.27,363h0c-9.93,0-18,1.85-18,4.13v29.08c0,2.28,8.06,4.13,18,4.13s18-1.85,18-4.13V367.11c0-2.28-8.06-4.13-18-4.13" style="fill:#fff"/><path d="M211.27,363h0c-9.93,0-18,1.85-18,4.13v29.08c0,2.28,8.06,4.13,18,4.13s18-1.85,18-4.13V367.11C229.26,364.83,221.2,363,211.27,363Z" style="fill:none;stroke:#fff;stroke-miterlimit:10;stroke-width:1.5637409687042236px"/><path d="M211.27,327.66h0c-9.93,0-18,1.85-18,4.13v29.07c0,2.29,8.06,4.14,18,4.14s18-1.85,18-4.14V331.79c0-2.28-8.06-4.13-18-4.13" style="fill:#fff"/><path d="M211.27,327.66h0c-9.93,0-18,1.85-18,4.13v29.07c0,2.29,8.06,4.14,18,4.14s18-1.85,18-4.14V331.79C229.26,329.51,221.2,327.66,211.27,327.66Z" style="fill:none;stroke:#fff;stroke-miterlimit:10;stroke-width:1.5637409687042236px"/><path d="M211.27,295.62h0c-9.93,0-18,1.85-18,4.13v29.08c0,2.28,8.06,4.13,18,4.13s18-1.85,18-4.13V299.75c0-2.28-8.06-4.13-18-4.13" style="fill:#fff"/><path d="M211.27,295.62h0c-9.93,0-18,1.85-18,4.13v29.08c0,2.28,8.06,4.13,18,4.13s18-1.85,18-4.13V299.75C229.26,297.47,221.2,295.62,211.27,295.62Z" style="fill:none;stroke:#fff;stroke-miterlimit:10;stroke-width:1.5637409687042236px"/><path d="M211.27,260.3h0c-9.93,0-18,1.85-18,4.13V293.5c0,2.29,8.06,4.14,18,4.14s18-1.85,18-4.14V264.43c0-2.28-8.06-4.13-18-4.13" style="fill:#fff"/><path d="M211.27,260.3h0c-9.93,0-18,1.85-18,4.13V293.5c0,2.29,8.06,4.14,18,4.14s18-1.85,18-4.14V264.43C229.26,262.15,221.2,260.3,211.27,260.3Z" style="fill:none;stroke:#fff;stroke-miterlimit:10;stroke-width:1.5637409687042236px"/><path d="M238.38,403.38h0A17.65,17.65,0,0,0,214,410.87a19,19,0,0,0,7.22,25.32,17.66,17.66,0,0,0,24.39-7.5h0a19,19,0,0,0-7.22-25.31" style="fill:#fff"/><path d="M238.38,403.38h0A17.65,17.65,0,0,0,214,410.87a19,19,0,0,0,7.22,25.32,17.66,17.66,0,0,0,24.39-7.5h0A19,19,0,0,0,238.38,403.38Z" style="fill:none;stroke:#fff;stroke-miterlimit:10;stroke-width:1.5637409687042236px"/><path d="M252.45,373.78h0a17.66,17.66,0,0,0-24.4,7.5,19,19,0,0,0,7.23,25.31,17.66,17.66,0,0,0,24.39-7.5,19,19,0,0,0-7.22-25.31" style="fill:#fff"/><path d="M252.45,373.78h0a17.66,17.66,0,0,0-24.4,7.5,19,19,0,0,0,7.23,25.31,17.66,17.66,0,0,0,24.39-7.5A19,19,0,0,0,252.45,373.78Z" style="fill:none;stroke:#fff;stroke-miterlimit:10;stroke-width:1.5637409687042236px"/><path d="M267.2,342.74h0a17.65,17.65,0,0,0-24.39,7.49A19,19,0,0,0,250,375.55a17.66,17.66,0,0,0,24.39-7.5,19,19,0,0,0-7.22-25.31" style="fill:#fff"/><path d="M267.2,342.74h0a17.65,17.65,0,0,0-24.39,7.49A19,19,0,0,0,250,375.55a17.66,17.66,0,0,0,24.39-7.5A19,19,0,0,0,267.2,342.74Z" style="fill:none;stroke:#fff;stroke-miterlimit:10;stroke-width:1.5637409687042236px"/><path d="M280.58,314.58h0a17.66,17.66,0,0,0-24.39,7.5,19,19,0,0,0,7.22,25.31,17.65,17.65,0,0,0,24.39-7.49,19,19,0,0,0-7.22-25.32" style="fill:#fff"/><path d="M280.58,314.58h0a17.66,17.66,0,0,0-24.39,7.5,19,19,0,0,0,7.22,25.31,17.65,17.65,0,0,0,24.39-7.49A19,19,0,0,0,280.58,314.58Z" style="fill:none;stroke:#fff;stroke-miterlimit:10;stroke-width:1.5637409687042236px"/><path d="M295.33,283.54h0a17.66,17.66,0,0,0-24.39,7.5,19,19,0,0,0,7.22,25.31,17.66,17.66,0,0,0,24.4-7.49h0a19,19,0,0,0-7.23-25.32" style="fill:#fff"/><path d="M295.33,283.54h0a17.66,17.66,0,0,0-24.39,7.5,19,19,0,0,0,7.22,25.31,17.66,17.66,0,0,0,24.4-7.49h0A19,19,0,0,0,295.33,283.54Z" style="fill:none;stroke:#fff;stroke-miterlimit:10;stroke-width:1.5637409687042236px"/></g></svg>